# Blender v2.71 (sub 0) OBJ File: 'Elip1Animaciones.blend'
# www.blender.org
mtllib ElipAla3.mtl
o Sphere.011_Sphere.009
v -0.376493 7.945807 0.847878
v -0.036274 7.215732 0.621550
v -0.372498 7.528493 0.102237
v -0.157871 7.151627 0.111606
v -0.372886 7.781263 0.560450
v -0.074171 7.181305 0.436358
v -0.111544 7.152657 0.263368
v -0.368583 7.648938 0.333843
v -0.072531 7.646808 0.672123
v -0.216673 7.364165 0.091874
v -0.123283 7.530529 0.442047
v -0.164260 7.438076 0.257817
v -0.330902 7.968419 0.833518
v 0.009315 7.238343 0.607190
v -0.326903 7.551095 0.087878
v -0.112276 7.174228 0.097247
v -0.327293 7.803870 0.546091
v -0.028579 7.203911 0.421999
v -0.065949 7.175261 0.249009
v -0.322989 7.671543 0.319484
v -0.026941 7.669419 0.657764
v -0.171078 7.386767 0.077515
v -0.077691 7.553134 0.427688
v -0.118666 7.460680 0.243458
vt 0.758642 0.621480
vt 0.768825 0.585769
vt 0.810099 0.595055
vt 0.727439 0.709550
vt 0.745276 0.658704
vt 0.807778 0.650539
vt 0.808915 0.620995
vt 0.702526 0.624126
vt 0.725800 0.583618
vt 0.638057 0.706539
vt 0.675467 0.663077
vt 0.864823 0.625126
vt 0.817442 0.621225
vt 0.819062 0.595478
vt 0.888752 0.702250
vt 0.816540 0.683173
vt 0.816723 0.650578
vt 0.875506 0.659227
vt 0.916502 0.629961
vt 0.856929 0.593615
vt 0.966377 0.719286
vt 0.938774 0.669327
vt 0.770690 0.575910
vt 0.729313 0.719286
vt 0.668311 0.657167
vt 0.694682 0.618831
vt 0.807483 0.683250
vt 0.717818 0.578685
vt 0.728795 0.575117
vt 0.807443 0.692339
vt 0.631341 0.700398
vt 0.895997 0.589664
vt 0.810314 0.586006
vt 0.641338 0.715053
vn -0.785600 -0.461400 0.412200
vn -0.748000 -0.434600 -0.501600
vn -0.505100 -0.776900 -0.375900
vn -0.106200 -0.405700 0.907800
vn -0.783700 -0.473400 0.402100
vn -0.426500 -0.869100 0.250400
vn -0.397500 -0.897800 0.189500
vn -0.999100 0.040900 -0.004800
vn -0.895700 -0.089100 -0.435700
vn -0.678900 0.285600 0.676400
vn -0.999700 0.016400 -0.018900
vn 0.785600 0.461400 -0.412200
vn 0.857400 -0.478900 -0.188000
vn 0.549100 -0.406900 -0.730000
vn 0.852800 0.428900 0.297700
vn 0.843100 -0.362900 0.396800
vn 0.876400 -0.469300 -0.107600
vn 0.783700 0.473400 -0.402100
vn 0.056600 0.869000 -0.491500
vn 0.430200 0.219300 -0.875600
vn 0.203100 0.879000 0.431400
vn 0.020400 0.864000 -0.503100
vn -0.266400 -0.680600 0.682500
vn 0.025800 0.575100 -0.817700
usemtl Material.003
s 1
f 12/1/1 10/2/2 4/3/3
f 9/4/4 11/5/5 6/6/6
f 11/5/5 12/1/1 7/7/7
f 8/8/8 3/9/9 10/2/2
f 1/10/10 5/11/11 11/5/5
f 5/11/11 8/8/8 12/1/1
f 24/12/12 19/13/13 16/14/14
f 21/15/15 14/16/16 18/17/17
f 23/18/18 18/17/17 19/13/13
f 20/19/19 24/12/12 22/20/20
f 13/21/21 21/15/15 23/18/18
f 17/22/22 23/18/18 24/12/12
f 4/3/3 10/2/2 22/23/20
f 1/10/10 9/4/4 21/24/15
f 5/11/11 17/25/22 20/26/19
f 6/6/6 7/7/7 19/13/13
f 2/27/23 6/6/6 18/17/17
f 8/8/8 20/26/19 15/28/24
f 3/9/9 15/29/24 22/23/20
f 7/7/7 4/3/3 16/14/14
f 2/27/23 14/30/16 21/24/15
f 1/10/10 13/31/21 17/25/22
f 7/7/7 12/1/1 4/3/3
f 2/27/23 9/4/4 6/6/6
f 6/6/6 11/5/5 7/7/7
f 12/1/1 8/8/8 10/2/2
f 9/4/4 1/10/10 11/5/5
f 11/5/5 5/11/11 12/1/1
f 22/20/20 24/12/12 16/14/14
f 23/18/18 21/15/15 18/17/17
f 24/12/12 23/18/18 19/13/13
f 15/32/24 20/19/19 22/20/20
f 17/22/22 13/21/21 23/18/18
f 20/19/19 17/22/22 24/12/12
f 16/33/14 4/3/3 22/23/20
f 13/34/21 1/10/10 21/24/15
f 8/8/8 5/11/11 20/26/19
f 18/17/17 6/6/6 19/13/13
f 14/16/16 2/27/23 18/17/17
f 3/9/9 8/8/8 15/28/24
f 10/2/2 3/9/9 22/23/20
f 19/13/13 7/7/7 16/14/14
f 9/4/4 2/27/23 21/24/15
f 5/11/11 1/10/10 17/25/22
