# Blender v2.71 (sub 0) OBJ File: 'Elip1Animaciones.blend'
# www.blender.org
mtllib ElipAla1.mtl
o Sphere.010_Sphere.008
v -0.419602 7.440542 0.057745
v -0.166138 7.087922 0.106325
v -0.477672 7.121523 -1.030033
v -0.372243 6.974851 -1.009826
v -0.417297 7.267878 -0.398150
v -0.225544 7.023971 -0.299834
v -0.295254 6.982999 -0.684693
v -0.439306 7.183404 -0.712303
v -0.202316 7.319607 0.059408
v -0.398268 7.064508 -1.026599
v -0.255416 7.186288 -0.365485
v -0.318124 7.113261 -0.710781
v -0.375538 7.467418 0.046352
v -0.122072 7.114798 0.094932
v -0.433606 7.148398 -1.041426
v -0.328177 7.001727 -1.021219
v -0.373233 7.294754 -0.409543
v -0.181478 7.050847 -0.311227
v -0.251187 7.009874 -0.696086
v -0.395240 7.210280 -0.723696
v -0.158250 7.346482 0.048015
v -0.354202 7.091384 -1.037992
v -0.211349 7.213163 -0.376878
v -0.274057 7.140137 -0.722174
vt 0.145207 0.399221
vt 0.151547 0.382956
vt 0.209036 0.384252
vt 0.267000 0.414653
vt 0.275824 0.384970
vt 0.349136 0.382499
vt 0.204975 0.406870
vt 0.143528 0.417272
vt 0.337255 0.477221
vt 0.255363 0.445021
vt 0.199793 0.429609
vt 0.209056 0.375252
vt 0.151747 0.373698
vt 0.148803 0.357386
vt 0.348624 0.373134
vt 0.275660 0.375754
vt 0.266765 0.346048
vt 0.205571 0.352750
vt 0.144991 0.340731
vt 0.337143 0.287753
vt 0.344118 0.330964
vt 0.200729 0.329092
vt 0.135765 0.396523
vt 0.356118 0.430963
vt 0.366527 0.431700
vt 0.252227 0.453848
vt 0.197392 0.438601
vt 0.141397 0.426320
vt 0.135765 0.413560
vt 0.358126 0.385001
vt 0.333613 0.485807
vt 0.255997 0.315639
vt 0.143078 0.381986
vt 0.346365 0.476276
vn -0.596800 -0.520400 -0.610700
vn -0.420500 -0.818200 -0.392100
vn -0.392700 -0.907400 0.149900
vn -0.819400 -0.510500 0.260700
vn -0.405600 -0.895000 0.185500
vn -0.259300 -0.632400 0.729900
vn -0.814400 -0.516900 0.263500
vn -0.893200 -0.080900 -0.442400
vn -0.794500 0.162900 0.585000
vn -0.997000 -0.058900 0.050000
vn -0.994100 -0.029400 0.103800
vn 0.882600 -0.441700 -0.160600
vn 0.637000 -0.378900 -0.671300
vn 0.526100 0.276000 -0.804300
vn 0.799000 -0.229100 0.555900
vn 0.891800 -0.443600 -0.088100
vn 0.819400 0.510500 -0.260700
vn 0.814400 0.516900 -0.263500
vn -0.064300 0.652600 -0.755000
vn 0.003700 0.934400 0.356100
vn 0.710700 0.575100 0.405200
vn -0.024100 0.974200 -0.224600
vn -0.342400 -0.123700 0.931400
vn -0.031300 0.951800 -0.305200
usemtl Material.003
s 1
f 10/1/1 4/2/2 7/3/3
f 11/4/4 6/5/5 2/6/6
f 12/7/7 7/3/3 6/5/5
f 3/8/8 10/1/1 12/7/7
f 1/9/9 5/10/10 11/4/4
f 8/11/11 12/7/7 11/4/4
f 19/12/12 16/13/13 22/14/14
f 14/15/15 18/16/16 23/17/17
f 18/16/16 19/12/12 24/18/18
f 24/18/18 22/14/14 15/19/19
f 13/20/20 21/21/21 23/17/17
f 23/17/17 24/18/18 20/22/22
f 4/2/2 10/1/1 22/23/14
f 1/9/9 9/24/23 21/25/21
f 5/10/10 17/26/24 20/27/22
f 6/5/5 7/3/3 19/12/12
f 2/6/6 6/5/5 18/16/16
f 8/11/11 20/27/22 15/28/19
f 3/8/8 15/29/19 22/23/14
f 7/3/3 4/2/2 16/13/13
f 2/6/6 14/30/15 21/25/21
f 1/9/9 13/31/20 17/26/24
f 12/7/7 10/1/1 7/3/3
f 9/24/23 11/4/4 2/6/6
f 11/4/4 12/7/7 6/5/5
f 8/11/11 3/8/8 12/7/7
f 9/24/23 1/9/9 11/4/4
f 5/10/10 8/11/11 11/4/4
f 24/18/18 19/12/12 22/14/14
f 21/21/21 14/15/15 23/17/17
f 23/17/17 18/16/16 24/18/18
f 20/22/22 24/18/18 15/19/19
f 17/32/24 13/20/20 23/17/17
f 17/32/24 23/17/17 20/22/22
f 16/33/13 4/2/2 22/23/14
f 13/34/20 1/9/9 21/25/21
f 8/11/11 5/10/10 20/27/22
f 18/16/16 6/5/5 19/12/12
f 14/15/15 2/6/6 18/16/16
f 3/8/8 8/11/11 15/28/19
f 10/1/1 3/8/8 22/23/14
f 19/12/12 7/3/3 16/13/13
f 9/24/23 2/6/6 21/25/21
f 5/10/10 1/9/9 17/26/24
