# Blender v2.71 (sub 0) OBJ File: 'Elip1Animaciones.blend'
# www.blender.org
mtllib ElipNucleo.mtl
o Sphere.014_Sphere.019
v -0.650209 7.196639 -0.288550
v -0.757254 7.125113 -0.288550
v -0.828780 7.018068 -0.288550
v -0.853896 6.891799 -0.288550
v -0.828780 6.765530 -0.288550
v -0.757254 6.658485 -0.288550
v -0.650209 6.586959 -0.288550
v -0.613226 7.196639 -0.377836
v -0.688918 7.125113 -0.453528
v -0.739494 7.018068 -0.504104
v -0.757254 6.891799 -0.521864
v -0.739494 6.765530 -0.504104
v -0.688918 6.658485 -0.453528
v -0.613226 6.586959 -0.377836
v -0.523940 7.196639 -0.414819
v -0.523940 7.125113 -0.521864
v -0.523940 7.018068 -0.593390
v -0.523940 6.891799 -0.618506
v -0.523940 6.765530 -0.593390
v -0.523940 6.658485 -0.521864
v -0.523940 6.586959 -0.414819
v -0.523940 7.221755 -0.288550
v -0.434655 7.196639 -0.377836
v -0.358962 7.125113 -0.453528
v -0.308386 7.018068 -0.504104
v -0.290626 6.891799 -0.521864
v -0.308386 6.765530 -0.504104
v -0.358962 6.658485 -0.453528
v -0.434655 6.586959 -0.377836
v -0.397671 7.196639 -0.288550
v -0.290626 7.125113 -0.288550
v -0.219101 7.018068 -0.288550
v -0.193984 6.891799 -0.288550
v -0.219101 6.765530 -0.288550
v -0.290626 6.658485 -0.288550
v -0.397671 6.586959 -0.288550
v -0.523940 6.561843 -0.288550
v -0.434655 7.196639 -0.199265
v -0.358962 7.125113 -0.123572
v -0.308386 7.018068 -0.072996
v -0.290626 6.891799 -0.055236
v -0.308386 6.765530 -0.072996
v -0.358962 6.658485 -0.123572
v -0.434655 6.586959 -0.199265
v -0.523940 7.196639 -0.162282
v -0.523940 7.125113 -0.055236
v -0.523940 7.018068 0.016289
v -0.523940 6.891799 0.041406
v -0.523940 6.765530 0.016289
v -0.523940 6.658485 -0.055236
v -0.523940 6.586959 -0.162282
v -0.613226 7.196639 -0.199265
v -0.688918 7.125113 -0.123572
v -0.739494 7.018068 -0.072996
v -0.757254 6.891799 -0.055236
v -0.739494 6.765530 -0.072996
v -0.688918 6.658485 -0.123572
v -0.613226 6.586959 -0.199265
vt 0.000000 0.000000
vt 1.000000 0.000000
vt 1.000000 1.000000
vt 0.000000 1.000000
vn -0.422600 -0.906300 0.000000
vn -0.729600 -0.683800 0.000000
vn -0.515900 -0.683800 -0.515900
vn -0.930300 -0.366800 0.000000
vn -0.657800 -0.366800 -0.657800
vn -1.000000 0.000000 0.000000
vn -0.707100 0.000000 -0.707100
vn -0.930300 0.366800 0.000000
vn -0.657800 0.366800 -0.657800
vn -0.729600 0.683800 0.000000
vn -0.515900 0.683800 -0.515900
vn -0.422600 0.906300 0.000000
vn -0.298800 0.906300 -0.298800
vn -0.298800 -0.906300 -0.298800
vn 0.000000 -0.683800 -0.729600
vn 0.000000 -0.366800 -0.930300
vn 0.000000 0.000000 -1.000000
vn 0.000000 0.366800 -0.930300
vn 0.000000 0.683800 -0.729600
vn 0.000000 0.906300 -0.422600
vn 0.515900 -0.683800 -0.515900
vn 0.298800 -0.906300 -0.298800
vn 0.657800 -0.366800 -0.657800
vn 0.707100 0.000000 -0.707100
vn 0.657800 0.366800 -0.657800
vn 0.515900 0.683800 -0.515900
vn 0.298800 0.906300 -0.298800
vn 0.729600 -0.683800 0.000000
vn 0.422600 -0.906300 0.000000
vn 0.930300 -0.366800 0.000000
vn 1.000000 0.000000 0.000000
vn 0.930300 0.366800 0.000000
vn 0.729600 0.683800 0.000000
vn 0.422600 0.906300 0.000000
vn 0.515900 -0.683800 0.515900
vn 0.298800 -0.906300 0.298800
vn 0.657800 -0.366800 0.657800
vn 0.707100 0.000000 0.707100
vn 0.657800 0.366800 0.657800
vn 0.515900 0.683800 0.515900
vn 0.298800 0.906300 0.298800
vn 0.000000 -0.683800 0.729600
vn 0.000000 -0.366800 0.930300
vn 0.000000 0.000000 1.000000
vn 0.000000 0.366800 0.930300
vn 0.000000 0.683800 0.729600
vn 0.000000 0.906300 0.422600
vn -0.515900 -0.683800 0.515900
vn -0.298800 -0.906300 0.298800
vn -0.657800 -0.366800 0.657800
vn -0.707100 0.000000 0.707100
vn -0.657800 0.366800 0.657800
vn -0.515900 0.683800 0.515900
vn -0.298800 0.906300 0.298800
vn 0.000000 -1.000000 0.000000
vn 0.000000 1.000000 0.000000
vn 0.000000 -0.906300 -0.422600
vn 0.000000 -0.906300 0.422600
usemtl Material.001
s 1
f 7/1/1 6/2/2 13/3/3
f 5/2/4 12/3/5 13/4/3
f 4/2/6 11/3/7 12/4/5
f 3/2/8 10/3/9 11/4/7
f 2/2/10 9/3/11 10/4/9
f 1/2/12 8/3/13 9/4/11
f 14/1/14 13/2/3 20/3/15
f 12/2/5 19/3/16 20/4/15
f 11/2/7 18/3/17 19/4/16
f 10/2/9 17/3/18 18/4/17
f 9/2/11 16/3/19 17/4/18
f 9/1/11 8/2/13 15/3/20
f 20/2/15 28/3/21 29/4/22
f 19/2/16 27/3/23 28/4/21
f 18/2/17 26/3/24 27/4/23
f 17/2/18 25/3/25 26/4/24
f 16/2/19 24/3/26 25/4/25
f 16/1/19 15/2/20 23/3/27
f 28/2/21 35/3/28 36/4/29
f 27/2/23 34/3/30 35/4/28
f 27/1/23 26/2/24 33/3/31
f 25/2/25 32/3/32 33/4/31
f 24/2/26 31/3/33 32/4/32
f 23/2/27 30/3/34 31/4/33
f 35/2/28 43/3/35 44/4/36
f 34/2/30 42/3/37 43/4/35
f 34/1/30 33/2/31 41/3/38
f 32/2/32 40/3/39 41/4/38
f 31/2/33 39/3/40 40/4/39
f 30/2/34 38/3/41 39/4/40
f 44/1/36 43/2/35 50/3/42
f 42/2/37 49/3/43 50/4/42
f 41/2/38 48/3/44 49/4/43
f 40/2/39 47/3/45 48/4/44
f 39/2/40 46/3/46 47/4/45
f 38/2/41 45/3/47 46/4/46
f 50/2/42 57/3/48 58/4/49
f 49/2/43 56/3/50 57/4/48
f 49/1/43 48/2/44 55/3/51
f 47/2/45 54/3/52 55/4/51
f 47/1/45 46/2/46 53/3/53
f 45/2/47 52/3/54 53/4/53
f 37/1/55 7/2/1 14/3/14
f 1/1/12 22/2/56 8/3/13
f 37/1/55 14/2/14 21/3/57
f 8/1/13 22/2/56 15/3/20
f 37/1/55 21/2/57 29/3/22
f 15/1/20 22/2/56 23/3/27
f 37/1/55 29/2/22 36/3/29
f 23/1/27 22/2/56 30/3/34
f 37/1/55 36/2/29 44/3/36
f 30/1/34 22/2/56 38/3/41
f 37/1/55 44/2/36 51/3/58
f 38/1/41 22/2/56 45/3/47
f 37/1/55 51/2/58 58/3/49
f 45/1/47 22/2/56 52/3/54
f 37/1/55 58/2/49 7/3/1
f 58/1/49 57/2/48 6/3/2
f 57/1/48 56/2/50 5/3/4
f 55/2/51 4/3/6 5/4/4
f 55/1/51 54/2/52 3/3/8
f 54/1/52 53/2/53 2/3/10
f 52/2/54 1/3/12 2/4/10
f 52/1/54 22/2/56 1/3/12
f 14/4/14 7/1/1 13/3/3
f 6/1/2 5/2/4 13/4/3
f 5/1/4 4/2/6 12/4/5
f 4/1/6 3/2/8 11/4/7
f 3/1/8 2/2/10 10/4/9
f 2/1/10 1/2/12 9/4/11
f 21/4/57 14/1/14 20/3/15
f 13/1/3 12/2/5 20/4/15
f 12/1/5 11/2/7 19/4/16
f 11/1/7 10/2/9 18/4/17
f 10/1/9 9/2/11 17/4/18
f 16/4/19 9/1/11 15/3/20
f 21/1/57 20/2/15 29/4/22
f 20/1/15 19/2/16 28/4/21
f 19/1/16 18/2/17 27/4/23
f 18/1/17 17/2/18 26/4/24
f 17/1/18 16/2/19 25/4/25
f 24/4/26 16/1/19 23/3/27
f 29/1/22 28/2/21 36/4/29
f 28/1/21 27/2/23 35/4/28
f 34/4/30 27/1/23 33/3/31
f 26/1/24 25/2/25 33/4/31
f 25/1/25 24/2/26 32/4/32
f 24/1/26 23/2/27 31/4/33
f 36/1/29 35/2/28 44/4/36
f 35/1/28 34/2/30 43/4/35
f 42/4/37 34/1/30 41/3/38
f 33/1/31 32/2/32 41/4/38
f 32/1/32 31/2/33 40/4/39
f 31/1/33 30/2/34 39/4/40
f 51/4/58 44/1/36 50/3/42
f 43/1/35 42/2/37 50/4/42
f 42/1/37 41/2/38 49/4/43
f 41/1/38 40/2/39 48/4/44
f 40/1/39 39/2/40 47/4/45
f 39/1/40 38/2/41 46/4/46
f 51/1/58 50/2/42 58/4/49
f 50/1/42 49/2/43 57/4/48
f 56/4/50 49/1/43 55/3/51
f 48/1/44 47/2/45 55/4/51
f 54/4/52 47/1/45 53/3/53
f 46/1/46 45/2/47 53/4/53
f 7/4/1 58/1/49 6/3/2
f 6/4/2 57/1/48 5/3/4
f 56/1/50 55/2/51 5/4/4
f 4/4/6 55/1/51 3/3/8
f 3/4/8 54/1/52 2/3/10
f 53/1/53 52/2/54 2/4/10
