# Blender v2.71 (sub 0) OBJ File: 'enemy.blend'
# www.blender.org
mtllib Pared.mtl
o Plane.005_Plane.006
v -4.954000 -0.000000 -4.960001
v -5.945999 -0.000000 -4.960001
v -4.954000 0.000000 -0.992001
v -5.945999 0.000000 -0.992001
v -4.954000 0.000000 -1.984001
v -4.954000 0.000000 -2.976001
v -4.954000 0.000000 -3.968000
v -4.954000 2.348857 -4.960001
v -5.945999 2.348857 -4.960001
v -4.954000 2.348857 -0.992001
v -5.945999 2.348857 -0.992001
v -4.954000 2.348857 -1.984001
v -4.954000 2.348857 -2.976001
v -4.954000 2.348857 -3.968000
v -5.945999 2.348857 -3.968000
v -4.954000 2.520063 -0.992001
v -5.945999 2.520063 -0.992001
v -4.954000 2.520063 -1.984001
v -4.954000 2.520063 -2.976001
v -5.945999 2.520063 -2.976001
v -4.954000 2.520063 -3.968000
v -5.945999 2.520063 -3.968000
v -4.954000 2.805407 -0.992001
v -5.945999 2.805407 -0.992001
v -4.954000 2.805407 -1.984001
v -5.945999 2.805407 -1.984001
v -4.954000 2.805407 -2.976001
v -5.945999 2.805407 -2.976001
v -4.954000 3.062216 -1.984001
v -5.945999 3.062216 -1.984001
v -4.954000 3.062216 -2.976001
v -5.945999 3.062216 -2.976001
v 4.960000 0.000000 5.955999
v 4.960000 0.000000 4.964000
v 0.992000 0.000000 5.955999
v 3.968000 0.000000 4.964000
v 2.976000 0.000000 4.964000
v 1.984000 0.000000 4.964000
v 0.992000 0.000000 4.964000
v 4.960000 2.348858 5.955999
v 4.960000 2.348858 4.964000
v 3.968000 2.348858 5.955999
v 2.976000 2.348858 5.955999
v 0.992000 2.348858 5.955999
v 3.968000 2.348858 4.964000
v 2.976000 2.348858 4.964000
v 1.984000 2.348858 4.964000
v 0.992000 2.348858 4.964000
v 4.960000 2.754220 5.955999
v 4.960000 2.754220 4.964000
v 3.968000 2.754220 5.955999
v 3.968000 2.754220 4.964000
v 2.976000 2.953494 5.955999
v 1.984000 2.953494 5.955999
v 0.992000 2.953494 5.955999
v 2.976000 2.953494 4.964000
v 1.984000 2.953494 4.964000
v 0.992000 2.953494 4.964000
v 1.984000 3.241416 5.955999
v 0.992000 3.241416 5.955999
v 1.984000 3.241416 4.964000
v 0.992000 3.241416 4.964000
v -4.957000 0.000000 4.962000
v -0.992000 0.000000 5.955999
v -0.992000 0.000000 4.964000
v -1.984000 0.000000 4.964000
v -2.976000 0.000000 4.964000
v -3.968000 0.000000 4.964000
v -4.957000 2.348858 4.962000
v -4.960000 2.348858 5.955999
v -0.992000 2.348858 5.955999
v -3.968000 2.348858 5.955999
v -0.992000 2.348858 4.964000
v -1.984000 2.348858 4.964000
v -2.976000 2.348858 4.964000
v -3.968000 2.348858 4.964000
v -4.954000 0.000000 3.968000
v -4.954000 0.000000 2.976000
v -4.954000 0.000000 1.984000
v -4.954000 0.000000 0.992000
v -5.945999 0.000000 0.992000
v -5.945999 2.348858 4.960001
v -4.957000 2.628072 4.962000
v -4.954000 2.348858 3.968000
v -5.945999 2.348858 3.968000
v -4.954000 2.348858 2.976000
v -4.954000 2.348858 1.984000
v -5.945999 2.348858 1.984000
v -4.954000 2.348858 0.992000
v -5.945999 2.348858 0.992000
v -0.992000 2.652093 5.955999
v -1.984000 2.652093 5.955999
v -2.976000 2.652093 5.955999
v -3.968000 2.652093 5.955999
v -0.992000 2.652093 4.964000
v -1.984000 2.652093 4.964000
v -2.976000 2.652093 4.964000
v -3.968000 2.652093 4.964000
v -0.992000 3.000812 5.955999
v -1.984000 3.000812 5.955999
v -0.992000 3.000812 4.964000
v -1.984000 3.000812 4.964000
v -4.954000 2.725669 3.968000
v -5.945999 2.725669 3.968000
v -4.954000 2.725669 2.976000
v -5.945999 2.725669 2.976000
v -4.954000 2.725669 1.984000
v -5.945999 2.725669 1.984000
v -4.954000 2.914075 3.968000
v -5.945999 2.914075 3.968000
v -4.954000 2.914075 2.976000
v -5.945999 2.914075 2.976000
v -4.960000 2.628072 5.955999
v -5.945999 2.628072 5.955999
v -5.945999 2.628071 4.960001
v -4.956999 0.000000 -4.966003
v -0.992000 0.000000 -5.960002
v -0.992000 0.000000 -4.968003
v -1.984000 0.000000 -4.968003
v -2.976000 0.000000 -4.968003
v -3.967999 0.000000 -4.968003
v -4.956999 2.348858 -4.966003
v -4.960000 2.348858 -5.960002
v -0.992000 2.348858 -5.960002
v -3.967999 2.348858 -5.960002
v -0.992000 2.348858 -4.968003
v -1.984000 2.348858 -4.968003
v -2.976000 2.348858 -4.968003
v -3.967999 2.348858 -4.968003
v -5.945999 2.348857 -4.964004
v -4.956999 2.628071 -4.966003
v -0.992000 2.652092 -5.960002
v -1.984000 2.652092 -5.960002
v -2.976000 2.652092 -5.960002
v -3.967999 2.652092 -5.960002
v -0.992000 2.652092 -4.968003
v -1.984000 2.652092 -4.968003
v -2.976000 2.652092 -4.968003
v -3.967999 2.652092 -4.968003
v -0.992000 3.000812 -5.960002
v -1.984000 3.000812 -5.960002
v -0.992000 3.000812 -4.968003
v -1.984000 3.000812 -4.968003
v -4.960000 2.628071 -5.960002
v -5.945999 2.628071 -5.960002
v -5.945999 2.628071 -4.964004
v 4.960000 0.000000 -5.960002
v 4.960000 0.000000 -4.968003
v 0.992000 0.000000 -5.960002
v 3.968000 0.000000 -4.968003
v 2.976000 0.000000 -4.968003
v 1.984000 0.000000 -4.968003
v 0.992000 0.000000 -4.968003
v 4.960000 2.348858 -5.960002
v 4.960000 2.348858 -4.968003
v 3.968000 2.348858 -5.960002
v 2.976000 2.348858 -5.960002
v 0.992000 2.348858 -5.960002
v 3.968000 2.348858 -4.968003
v 2.976000 2.348858 -4.968003
v 1.984000 2.348858 -4.968003
v 0.992000 2.348858 -4.968003
v 4.960000 2.754220 -5.960002
v 4.960000 2.754220 -4.968003
v 3.968000 2.754220 -5.960002
v 3.968000 2.754220 -4.968003
v 2.976000 2.953494 -5.960002
v 1.984000 2.953494 -5.960002
v 0.992000 2.953494 -5.960002
v 2.976000 2.953494 -4.968003
v 1.984000 2.953494 -4.968003
v 0.992000 2.953494 -4.968003
v 1.984000 3.241416 -5.960002
v 0.992000 3.241416 -5.960002
v 1.984000 3.241416 -4.968003
v 0.992000 3.241416 -4.968003
vt 0.637318 0.247494
vt 0.693382 0.247494
vt 0.693382 0.303558
vt 0.540948 0.207182
vt 0.540946 0.216857
vt 0.484883 0.216850
vt 0.627642 0.237819
vt 0.627642 0.247494
vt 0.571580 0.247494
vt 0.540966 0.074434
vt 0.484884 0.207174
vt 0.826131 0.303559
vt 0.693382 0.114746
vt 0.470363 0.088939
vt 0.470365 0.221688
vt 0.414301 0.221689
vt 0.627644 0.105074
vt 0.571580 0.237818
vt 0.255751 0.303560
vt 0.255749 0.247495
vt 0.388498 0.247492
vt 0.540943 0.232982
vt 0.484881 0.232977
vt 0.627641 0.303557
vt 0.470365 0.231364
vt 0.414301 0.231365
vt 0.637318 0.303558
vt 0.398174 0.247491
vt 0.398175 0.303556
vt 0.414301 0.247491
vt 0.470365 0.247491
vt 0.470365 0.303554
vt 0.540941 0.247494
vt 0.484880 0.247491
vt 0.571578 0.303556
vt 0.555452 0.303555
vt 0.555454 0.247494
vt 0.414302 0.303555
vt 0.540939 0.303554
vt 0.484878 0.303553
vt 0.484902 0.074426
vt 0.826131 0.247495
vt 0.637318 0.114746
vt 0.414299 0.088940
vt 0.571581 0.105073
vt 0.388500 0.303556
vt 0.462670 0.849117
vt 0.439761 0.849117
vt 0.439761 0.793053
vt 0.731748 0.849118
vt 0.697576 0.849118
vt 0.697576 0.793054
vt 0.518734 0.793053
vt 0.552906 0.793053
vt 0.552905 0.849117
vt 0.462671 0.793053
vt 0.228038 0.793053
vt 0.360787 0.793053
vt 0.360787 0.849117
vt 0.608970 0.626138
vt 0.608969 0.758883
vt 0.552906 0.758883
vt 0.681304 0.609865
vt 0.681304 0.742611
vt 0.625241 0.742611
vt 0.439761 0.637394
vt 0.439761 0.770143
vt 0.383697 0.770143
vt 0.518735 0.660305
vt 0.864496 0.793054
vt 0.864496 0.849117
vt 0.383697 0.849117
vt 0.383697 0.793053
vt 0.608969 0.793054
vt 0.625241 0.793054
vt 0.625240 0.849117
vt 0.681304 0.776782
vt 0.625241 0.776782
vt 0.681304 0.793054
vt 0.681304 0.849117
vt 0.731748 0.793054
vt 0.518734 0.849117
vt 0.228038 0.849117
vt 0.552907 0.626137
vt 0.625241 0.609865
vt 0.383697 0.637394
vt 0.462671 0.660305
vt 0.608968 0.849117
vt 0.446759 0.561193
vt 0.390695 0.561146
vt 0.390741 0.505083
vt 0.373618 0.487931
vt 0.373603 0.505069
vt 0.317540 0.505022
vt 0.373557 0.561132
vt 0.148860 0.504883
vt 0.165997 0.504897
vt 0.165950 0.560960
vt 0.373728 0.355185
vt 0.317554 0.487885
vt 0.241909 0.335367
vt 0.241799 0.468114
vt 0.185735 0.468068
vt 0.446476 0.372268
vt 0.446635 0.505016
vt 0.317665 0.355138
vt 0.261491 0.487838
vt 0.462415 0.504981
vt 0.518310 0.504914
vt 0.518264 0.561204
vt 0.757291 0.475123
vt 0.757282 0.496418
vt 0.701219 0.496393
vt 0.778578 0.496428
vt 0.834641 0.496454
vt 0.834615 0.552518
vt 0.602230 0.363596
vt 0.602565 0.496346
vt 0.546387 0.496488
vt 0.757349 0.342378
vt 0.701228 0.475098
vt 0.690649 0.331697
vt 0.690586 0.464445
vt 0.634523 0.464418
vt 0.834703 0.363707
vt 0.016066 0.560835
vt 0.016113 0.504772
vt 0.967388 0.496516
vt 0.967362 0.552579
vt 0.317493 0.561086
vt 0.261430 0.561039
vt 0.261476 0.504976
vt 0.185705 0.504913
vt 0.185658 0.560976
vt 0.241785 0.485252
vt 0.185721 0.485205
vt 0.241768 0.504960
vt 0.241722 0.561023
vt 0.690576 0.485741
vt 0.690571 0.496388
vt 0.634508 0.496362
vt 0.757256 0.552482
vt 0.634513 0.485714
vt 0.778552 0.552492
vt 0.623860 0.496356
vt 0.623833 0.552420
vt 0.690545 0.552451
vt 0.701193 0.552456
vt 0.634481 0.552425
vt 0.546473 0.552383
vt 0.518291 0.489134
vt 0.462539 0.561158
vt 0.148813 0.560946
vt 0.185845 0.335321
vt 0.390581 0.372335
vt 0.261601 0.355091
vt 0.546052 0.363738
vt 0.701287 0.342353
vt 0.634586 0.331670
vt 0.778640 0.363681
vt 0.602537 0.552410
vt 0.462396 0.489201
vn 0.000000 1.000000 -0.000000
vn 1.000000 0.000000 0.000000
vn 0.000000 0.000000 -1.000000
vn 0.000000 0.000000 1.000000
vn -1.000000 0.000000 0.000000
vn 0.002000 0.000000 -1.000000
vn 1.000000 0.000000 0.003000
vn 0.002000 0.000000 1.000000
vn 1.000000 0.000000 -0.003000
usemtl Material.005
s off
f 14/1/1 8/2/1 9/3/1
f 13/4/2 19/5/2 18/6/2
f 14/7/2 21/8/2 19/9/2
f 6/10/2 13/4/2 12/11/2
f 2/12/3 9/3/3 8/2/3
f 1/13/2 8/2/2 14/1/2
f 5/14/2 12/15/2 10/16/2
f 7/17/2 14/7/2 13/18/2
f 4/19/4 3/20/4 10/21/4
f 19/5/2 27/22/2 25/23/2
f 19/9/1 21/8/1 22/24/1
f 12/15/2 18/25/2 16/26/2
f 15/27/3 22/24/3 21/8/3
f 10/21/4 16/28/4 17/29/4
f 23/30/1 25/31/1 26/32/1
f 27/22/2 31/33/2 29/34/2
f 18/25/2 25/31/2 23/30/2
f 20/35/3 28/36/3 27/37/3
f 16/28/4 23/30/4 24/38/4
f 29/34/1 31/33/1 32/39/1
f 28/36/3 32/39/3 31/33/3
f 25/31/4 29/34/4 30/40/4
f 15/27/1 14/1/1 9/3/1
f 12/11/2 13/4/2 18/6/2
f 13/18/2 14/7/2 19/9/2
f 5/41/2 6/10/2 12/11/2
f 1/42/3 2/12/3 8/2/3
f 7/43/2 1/13/2 14/1/2
f 3/44/2 5/14/2 10/16/2
f 6/45/2 7/17/2 13/18/2
f 11/46/4 4/19/4 10/21/4
f 18/6/2 19/5/2 25/23/2
f 20/35/1 19/9/1 22/24/1
f 10/16/2 12/15/2 16/26/2
f 14/1/3 15/27/3 21/8/3
f 11/46/4 10/21/4 17/29/4
f 24/38/1 23/30/1 26/32/1
f 25/23/2 27/22/2 29/34/2
f 16/26/2 18/25/2 23/30/2
f 19/9/3 20/35/3 27/37/3
f 17/29/4 16/28/4 24/38/4
f 30/40/1 29/34/1 32/39/1
f 27/37/3 28/36/3 31/33/3
f 26/32/4 25/31/4 30/40/4
f 42/47/5 51/48/5 52/49/5
f 44/50/5 55/51/5 58/52/5
f 46/53/2 56/54/2 53/55/2
f 42/47/1 45/56/1 46/53/1
f 34/57/2 41/58/2 40/59/2
f 38/60/3 47/61/3 46/62/3
f 39/63/3 48/64/3 47/65/3
f 36/66/3 45/67/3 41/68/3
f 37/69/3 46/53/3 45/56/3
f 39/70/5 35/71/5 44/50/5
f 49/72/1 50/73/1 52/49/1
f 45/67/3 52/49/3 50/73/3
f 41/58/2 50/73/2 49/72/2
f 57/74/2 61/75/2 59/76/2
f 53/55/1 56/54/1 57/74/1
f 48/64/3 58/77/3 57/78/3
f 47/61/3 57/74/3 56/54/3
f 59/76/1 61/75/1 62/79/1
f 55/51/5 60/80/5 62/79/5
f 58/77/3 62/79/3 61/75/3
f 45/56/5 42/47/5 52/49/5
f 48/81/5 44/50/5 58/52/5
f 43/82/2 46/53/2 53/55/2
f 43/82/1 42/47/1 46/53/1
f 33/83/2 34/57/2 40/59/2
f 37/84/3 38/60/3 46/62/3
f 38/85/3 39/63/3 47/65/3
f 34/86/3 36/66/3 41/68/3
f 36/87/3 37/69/3 45/56/3
f 48/81/5 39/70/5 44/50/5
f 51/48/1 49/72/1 52/49/1
f 41/68/3 45/67/3 50/73/3
f 40/59/2 41/58/2 49/72/2
f 54/88/2 57/74/2 59/76/2
f 54/88/1 53/55/1 57/74/1
f 47/65/3 48/64/3 57/78/3
f 46/62/3 47/61/3 56/54/3
f 60/80/1 59/76/1 62/79/1
f 58/52/5 55/51/5 62/79/5
f 57/78/3 58/77/3 61/75/3
f 70/89/1 72/90/1 76/91/1
f 76/92/3 98/93/3 97/94/3
f 72/90/5 94/95/5 98/93/5
f 73/96/2 95/97/2 91/98/2
f 68/99/3 76/92/3 75/100/3
f 66/101/3 74/102/3 73/103/3
f 63/104/6 69/105/6 76/91/6
f 67/106/3 75/100/3 74/107/3
f 83/108/1 115/109/1 114/110/1
f 87/111/2 107/112/2 105/113/2
f 87/114/1 89/115/1 90/116/1
f 77/117/7 84/118/7 69/119/7
f 79/120/2 87/111/2 86/121/2
f 78/122/2 86/123/2 84/124/2
f 80/125/2 89/115/2 87/114/2
f 64/126/2 65/127/2 73/96/2
f 80/128/3 81/129/3 90/116/3
f 93/130/1 97/94/1 98/93/1
f 92/131/1 96/132/1 97/94/1
f 95/97/2 101/133/2 99/134/2
f 75/100/3 97/94/3 96/132/3
f 74/102/3 96/135/3 95/136/3
f 99/134/1 101/133/1 102/137/1
f 92/131/5 100/138/5 102/137/5
f 96/135/3 102/137/3 101/133/3
f 105/139/2 111/140/2 109/141/2
f 105/113/1 107/112/1 108/142/1
f 86/123/2 105/139/2 103/143/2
f 88/144/3 108/142/3 107/112/3
f 84/118/4 103/145/4 104/146/4
f 109/141/1 111/140/1 112/147/1
f 106/148/3 112/147/3 111/140/3
f 103/145/4 109/141/4 110/149/4
f 82/150/1 69/119/1 84/118/1
f 82/151/6 115/109/6 83/108/6
f 69/105/7 83/108/7 113/152/7
f 69/105/1 70/89/1 76/91/1
f 75/100/3 76/92/3 97/94/3
f 76/91/5 72/90/5 98/93/5
f 71/153/2 73/96/2 91/98/2
f 67/106/3 68/99/3 75/100/3
f 65/154/3 66/101/3 73/103/3
f 68/155/6 63/104/6 76/91/6
f 66/156/3 67/106/3 74/107/3
f 113/152/1 83/108/1 114/110/1
f 86/121/2 87/111/2 105/113/2
f 88/144/1 87/114/1 90/116/1
f 63/157/7 77/117/7 69/119/7
f 78/158/2 79/120/2 86/121/2
f 77/159/2 78/122/2 84/124/2
f 79/160/2 80/125/2 87/114/2
f 71/153/2 64/126/2 73/96/2
f 89/115/3 80/128/3 90/116/3
f 94/95/1 93/130/1 98/93/1
f 93/130/1 92/131/1 97/94/1
f 91/98/2 95/97/2 99/134/2
f 74/107/3 75/100/3 96/132/3
f 73/103/3 74/102/3 95/136/3
f 100/138/1 99/134/1 102/137/1
f 96/132/5 92/131/5 102/137/5
f 95/136/3 96/135/3 101/133/3
f 103/143/2 105/139/2 109/141/2
f 106/148/1 105/113/1 108/142/1
f 84/124/2 86/123/2 103/143/2
f 87/114/3 88/144/3 107/112/3
f 85/161/4 84/118/4 104/146/4
f 110/149/1 109/141/1 112/147/1
f 105/113/3 106/148/3 111/140/3
f 104/146/4 103/145/4 110/149/4
f 85/161/1 82/150/1 84/118/1
f 69/162/6 82/151/6 83/108/6
f 70/89/7 69/105/7 113/152/7
f 123/89/1 129/91/1 125/90/1
f 129/92/4 138/94/4 139/93/4
f 125/90/5 139/93/5 135/95/5
f 126/96/2 132/98/2 136/97/2
f 121/99/4 128/100/4 129/92/4
f 119/101/4 126/103/4 127/102/4
f 116/104/8 129/91/8 122/105/8
f 120/106/4 127/107/4 128/100/4
f 131/108/1 145/110/1 146/109/1
f 117/126/2 126/96/2 118/127/2
f 134/130/1 139/93/1 138/94/1
f 133/131/1 138/94/1 137/132/1
f 136/97/2 140/134/2 142/133/2
f 128/100/4 137/132/4 138/94/4
f 127/102/4 136/136/4 137/135/4
f 140/134/1 143/137/1 142/133/1
f 133/131/5 143/137/5 141/138/5
f 137/135/4 142/133/4 143/137/4
f 130/151/8 131/108/8 146/109/8
f 122/105/9 144/152/9 131/108/9
f 122/105/1 129/91/1 123/89/1
f 128/100/4 138/94/4 129/92/4
f 129/91/5 139/93/5 125/90/5
f 124/153/2 132/98/2 126/96/2
f 120/106/4 128/100/4 121/99/4
f 118/154/4 126/103/4 119/101/4
f 121/155/8 129/91/8 116/104/8
f 119/156/4 127/107/4 120/106/4
f 144/152/1 145/110/1 131/108/1
f 124/153/2 126/96/2 117/126/2
f 135/95/1 139/93/1 134/130/1
f 134/130/1 138/94/1 133/131/1
f 132/98/2 140/134/2 136/97/2
f 127/107/4 137/132/4 128/100/4
f 126/103/4 136/136/4 127/102/4
f 141/138/1 143/137/1 140/134/1
f 137/132/5 143/137/5 133/131/5
f 136/136/4 142/133/4 137/135/4
f 122/162/8 131/108/8 130/151/8
f 123/89/9 144/152/9 122/105/9
f 156/47/5 166/49/5 165/48/5
f 158/50/5 172/52/5 169/51/5
f 160/53/2 167/55/2 170/54/2
f 156/47/1 160/53/1 159/56/1
f 148/57/2 154/59/2 155/58/2
f 152/60/4 160/62/4 161/61/4
f 153/63/4 161/65/4 162/64/4
f 150/66/4 155/68/4 159/67/4
f 151/69/4 159/56/4 160/53/4
f 153/70/5 158/50/5 149/71/5
f 163/72/1 166/49/1 164/73/1
f 159/67/4 164/73/4 166/49/4
f 155/58/2 163/72/2 164/73/2
f 171/74/2 173/76/2 175/75/2
f 167/55/1 171/74/1 170/54/1
f 162/64/4 171/78/4 172/77/4
f 161/61/4 170/54/4 171/74/4
f 173/76/1 176/79/1 175/75/1
f 169/51/5 176/79/5 174/80/5
f 172/77/4 175/75/4 176/79/4
f 159/56/5 166/49/5 156/47/5
f 162/81/5 172/52/5 158/50/5
f 157/82/2 167/55/2 160/53/2
f 157/82/1 160/53/1 156/47/1
f 147/83/2 154/59/2 148/57/2
f 151/84/4 160/62/4 152/60/4
f 152/85/4 161/65/4 153/63/4
f 148/86/4 155/68/4 150/66/4
f 150/87/4 159/56/4 151/69/4
f 162/81/5 158/50/5 153/70/5
f 165/48/1 166/49/1 163/72/1
f 155/68/4 164/73/4 159/67/4
f 154/59/2 163/72/2 155/58/2
f 168/88/2 173/76/2 171/74/2
f 168/88/1 171/74/1 167/55/1
f 161/65/4 171/78/4 162/64/4
f 160/62/4 170/54/4 161/61/4
f 174/80/1 176/79/1 173/76/1
f 172/52/5 176/79/5 169/51/5
f 171/78/4 175/75/4 172/77/4
