# Blender v2.71 (sub 0) OBJ File: 'Elip1Animaciones.blend'
# www.blender.org
mtllib ElipPata3.mtl
o Sphere.008_Sphere.003
v 1.347426 4.182879 2.201792
v 1.309883 4.044952 2.500489
v 1.309891 3.805272 2.728973
v 1.347450 3.500326 2.852463
v 1.416840 3.176540 2.852156
v 1.507499 2.883209 2.728102
v 1.605623 2.664987 2.499184
v 1.151525 4.122049 2.061397
v 0.947906 3.932554 2.241072
v 0.836946 3.658416 2.390029
v 0.835537 3.341370 2.485593
v 0.943894 3.029684 2.513213
v 1.145522 2.770810 2.468686
v 1.409722 2.604157 2.358789
v 1.117253 4.069111 1.820958
v 0.884578 3.834737 1.796798
v 0.754204 3.530612 1.809558
v 0.745978 3.203037 1.857294
v 0.861152 2.901881 1.932741
v 1.082194 2.672993 2.024412
v 1.375450 2.551220 2.118350
v 1.416804 4.198053 1.878360
v 1.737629 4.201932 1.960264
v 2.030886 4.080159 2.054203
v 2.251926 3.851271 2.145873
v 2.367101 3.550115 2.221320
v 2.358875 3.222539 2.269057
v 2.228501 2.918415 2.281816
v 1.995826 2.684041 2.257656
v 1.703357 4.148994 1.719826
v 1.967557 3.982342 1.609929
v 2.169184 3.723468 1.565401
v 2.277541 3.411782 1.593022
v 2.276133 3.094737 1.688585
v 2.165172 2.820598 1.837543
v 1.961553 2.631103 2.017217
v 1.696275 2.555099 2.200254
v 1.507456 4.088165 1.579430
v 1.605581 3.869943 1.350513
v 1.696239 3.576612 1.226457
v 1.765629 3.252826 1.226152
v 1.803188 2.947880 1.349641
v 1.803196 2.708200 1.578126
v 1.765653 2.570273 1.876822
v 1.264683 4.055076 1.621321
v 1.156996 3.808803 1.427916
v 1.110135 3.496728 1.327590
v 1.131235 3.166361 1.335617
v 1.217083 2.867997 1.450774
v 1.354611 2.647059 1.655530
v 1.522881 2.537184 1.918712
v 1.347426 4.182879 2.201792
v 1.309883 4.044952 2.500489
v 1.309891 3.805272 2.728973
v 1.347450 3.500326 2.852463
v 1.416840 3.176540 2.852156
v 1.507499 2.883209 2.728102
v 1.605623 2.664987 2.499184
v 1.217733 4.462720 2.179463
v 1.165995 4.272643 2.591095
v 1.166006 3.942339 2.905971
v 1.280290 3.154522 3.148168
v 1.583551 1.487671 3.386900
v 1.759634 0.782748 3.274851
v 1.916780 0.353153 2.984627
v 1.520288 1.865864 3.222376
v 1.215946 3.883259 2.821598
v 1.278621 3.261016 3.005744
v 1.733246 1.002584 3.217627
v 1.261954 4.367302 2.187076
v 1.888420 0.563860 2.940382
v 1.228281 4.174080 2.551873
v 1.416804 4.198053 1.878360
v 1.737629 4.201932 1.960264
v 2.030886 4.080159 2.054203
v 2.251926 3.851271 2.145873
v 2.367101 3.550115 2.221320
v 2.358875 3.222539 2.269057
v 2.228501 2.918415 2.281816
v 1.995826 2.684041 2.257656
v 1.696275 2.555099 2.200254
v 1.563744 4.513977 2.140673
v 1.834085 4.381562 2.566979
v 2.054104 4.092159 2.899605
v 2.252926 3.322304 3.160083
v 2.471649 1.637491 3.380533
v 2.427724 0.891667 3.250734
v 2.262791 0.404411 2.945836
v 1.313343 4.483631 1.733740
v 1.755472 4.488977 1.846613
v 2.159609 4.321161 1.976069
v 2.464226 4.005730 2.102401
v 2.685472 3.223137 2.278390
v 2.881771 1.551062 2.583329
v 2.753248 0.831265 2.659824
v 2.454520 0.379411 2.651777
v 2.078240 -0.013057 2.614750
v 2.760894 1.937455 2.510679
v 2.378807 3.943583 2.119892
v 1.352100 4.376652 1.787915
v 2.046607 0.199628 2.580423
v 2.576176 3.335388 2.258797
v 2.698327 1.049708 2.620262
v 1.749388 4.391103 1.885365
v 2.412713 0.589461 2.615855
v 2.103887 4.216836 2.009892
v 2.069735 0.622380 2.651137
v 1.733873 1.528098 3.048016
v 1.378992 4.255488 2.265003
v 1.352647 3.832852 2.799213
v 1.573700 2.353772 3.086139
v 1.437404 4.348804 1.923533
v 1.397715 3.357146 2.938636
v 1.909635 1.053816 2.897818
v 1.355630 4.067568 2.569063
v 2.509461 1.565969 2.567943
v 1.774990 4.274825 2.019888
v 2.293780 3.878807 2.216672
v 2.571568 2.409270 2.503049
v 2.447102 3.415160 2.323657
v 2.330738 1.074378 2.637164
v 2.070273 4.102464 2.126714
v 1.757055 2.538457 2.297137
v 1.528373 2.748345 2.781732
v 1.396392 4.220554 2.211583
v 1.377257 3.821307 2.735627
v 1.474353 3.095917 2.901277
v 1.455541 4.258449 1.945707
v 1.408870 3.433895 2.890373
v 1.635644 2.576530 2.557998
v 1.350378 4.057121 2.523868
v 2.276668 2.784884 2.318553
v 1.722005 4.236454 2.010035
v 2.226865 3.862793 2.209738
v 2.382940 3.140282 2.338882
v 2.378417 3.481237 2.290243
v 2.041297 2.596338 2.306907
v 2.032958 4.090451 2.101365
v 1.963349 1.934134 2.582744
v 1.628867 2.363553 2.929005
v 1.387692 4.238021 2.238293
v 1.364952 3.827080 2.767420
v 1.524027 2.724844 2.993708
v 1.446472 4.303627 1.934620
v 1.403292 3.395520 2.914505
v 1.772207 2.165275 2.754827
v 1.353004 4.062345 2.546466
v 2.390808 2.400758 2.457380
v 1.748498 4.255639 2.014962
v 2.260322 3.870800 2.213206
v 2.477254 2.774776 2.420965
v 2.412759 3.448199 2.306951
v 2.185585 2.185460 2.498955
v 2.051616 4.096457 2.114039
vt 0.968901 0.696780
vt 0.957469 0.616458
vt 0.960540 0.596055
vt 0.927991 0.577731
vt 0.892603 0.546164
vt 0.894200 0.527040
vt 0.915574 0.953305
vt 0.919755 0.962175
vt 0.883141 0.982693
vt 0.960190 0.889431
vt 0.969961 0.893711
vt 0.949355 0.931570
vt 0.967431 0.827785
vt 0.978964 0.660082
vt 0.930392 0.558616
vt 0.941416 0.923195
vt 0.978964 0.815961
vt 0.571023 0.120468
vt 0.512914 0.106907
vt 0.535531 0.061377
vt 0.576352 0.183008
vt 0.495353 0.175323
vt 0.588640 0.327222
vt 0.495353 0.341629
vt 0.594477 0.395726
vt 0.519361 0.423760
vt 0.597902 0.435916
vt 0.542900 0.462440
vt 0.601724 0.480780
vt 0.572375 0.495980
vt 0.562295 0.018040
vt 0.566677 0.069466
vt 0.605548 0.525651
vt 0.933264 0.909350
vt 0.924663 0.621680
vt 0.897879 0.583564
vt 0.953879 0.835458
vt 0.954918 0.740768
vt 0.912520 0.936514
vt 0.881921 0.971166
vt 0.944684 0.664991
vt 0.948139 0.881939
vt 0.150591 0.701094
vt 0.143679 0.664004
vt 0.162106 0.600406
vt 0.194552 0.582351
vt 0.192266 0.563325
vt 0.228465 0.532102
vt 0.238484 0.987791
vt 0.201660 0.967346
vt 0.205827 0.958437
vt 0.171929 0.936710
vt 0.151930 0.898741
vt 0.160919 0.894444
vt 0.152209 0.832454
vt 0.143644 0.820409
vt 0.165116 0.620659
vt 0.179892 0.928398
vt 0.596006 0.056224
vt 0.626001 0.097271
vt 0.654883 0.161730
vt 0.683019 0.325638
vt 0.673253 0.410647
vt 0.656598 0.452752
vt 0.633222 0.490796
vt 0.187911 0.914518
vt 0.197562 0.626088
vt 0.229947 0.551145
vt 0.165801 0.840013
vt 0.239662 0.976219
vt 0.208842 0.941591
vt 0.177200 0.669020
vt 0.172675 0.887045
vt 0.164472 0.745200
vt 0.909463 0.935944
vt 0.931029 0.909567
vt 0.919851 0.723957
vt 0.897694 0.701820
vt 0.951827 0.839354
vt 0.950769 0.775422
vt 0.885229 0.952745
vt 0.939967 0.742364
vt 0.944925 0.881958
vt 0.211902 0.941006
vt 0.201607 0.728212
vt 0.224484 0.588339
vt 0.168732 0.843882
vt 0.236269 0.957749
vt 0.235389 0.962059
vt 0.181334 0.746646
vt 0.190153 0.914721
vt 0.169695 0.779893
vt 0.175939 0.887075
vt 0.924461 0.908088
vt 0.928818 0.909809
vt 0.906448 0.935415
vt 0.876446 0.770334
vt 0.883482 0.762843
vt 0.909236 0.765706
vt 0.943485 0.850720
vt 0.942061 0.818910
vt 0.946593 0.810278
vt 0.876459 0.944160
vt 0.903606 0.930437
vt 0.928987 0.792520
vt 0.905547 0.774842
vt 0.935965 0.879506
vt 0.941793 0.881973
vt 0.932256 0.779889
vt 0.949778 0.843395
vt 0.214921 0.940462
vt 0.192372 0.914948
vt 0.196725 0.913199
vt 0.212252 0.770033
vt 0.237991 0.767160
vt 0.245025 0.774640
vt 0.177930 0.855385
vt 0.171685 0.847943
vt 0.174903 0.814699
vt 0.245025 0.949101
vt 0.237138 0.953568
vt 0.192580 0.796879
vt 0.189301 0.784256
vt 0.179108 0.887095
vt 0.179461 0.823393
vt 0.185011 0.884633
vt 0.884344 0.948580
vt 0.223869 0.706165
vt 0.886124 0.957039
vt 0.217743 0.935460
vt 0.215954 0.779159
vt 0.000000 0.000000
vn -0.881000 -0.184700 -0.435600
vn -0.907100 -0.170400 -0.384900
vn -0.670000 -0.430500 0.604700
vn -0.936800 -0.104600 -0.333900
vn -0.517700 -0.125700 -0.846300
vn -0.142500 -0.941800 -0.304500
vn -0.761700 -0.588500 -0.271100
vn -0.847500 0.530600 0.012200
vn -0.504600 0.354200 -0.787300
vn -0.699100 -0.404700 -0.589500
vn -0.824900 0.227800 0.517300
vn -0.865300 0.430200 0.257300
vn -0.789500 -0.217100 -0.574000
vn -0.704500 -0.162400 0.690800
vn -0.622500 -0.632100 0.461300
vn -0.708000 -0.543200 -0.451200
vn -0.758600 0.024300 0.651100
vn 0.506600 -0.341700 0.791500
vn 0.525500 0.020200 0.850600
vn 0.494900 0.282000 0.821900
vn 0.403600 0.590600 0.698700
vn 0.218100 0.880000 0.421800
vn 0.037800 0.989500 0.139100
vn 0.436400 -0.615200 0.656500
vn -0.872600 -0.356200 -0.334300
vn -0.840800 -0.085000 -0.534700
vn -0.526800 0.117700 -0.841800
vn -0.574400 -0.259700 -0.776200
vn -0.768200 -0.207800 -0.605600
vn -0.749300 -0.566900 -0.342300
vn -0.343600 -0.712800 -0.611400
vn -0.873100 -0.153500 -0.462600
vn -0.643500 -0.385600 -0.661200
vn -0.088800 -0.144900 -0.985400
vn 0.910100 -0.077900 -0.406900
vn 0.868900 -0.351800 -0.348200
vn 0.124500 -0.052700 -0.990800
vn 0.732900 -0.566000 -0.377600
vn 0.349300 0.589100 -0.728600
vn 0.137100 -0.544600 -0.827400
vn 0.589600 0.493300 -0.639500
vn 0.794900 0.281500 -0.537300
vn -0.198200 -0.398300 -0.895600
vn -0.310500 -0.256300 -0.915300
vn 0.843300 0.070600 -0.532600
vn 0.142300 -0.103000 -0.984400
vn -0.035600 -0.514000 -0.857000
vn 0.113400 -0.308000 -0.944600
vn -0.098800 -0.048800 -0.993900
vn -0.160100 -0.252200 -0.954300
vn 0.066400 -0.527100 -0.847200
vn 0.020000 -0.100200 -0.994800
vn -0.210900 -0.381900 -0.899800
vn -0.050700 -0.167900 -0.984500
vn -0.965000 -0.158000 -0.209300
vn -0.983900 0.166600 0.064700
vn -0.857500 -0.290400 -0.424700
vn -0.508300 -0.202300 -0.837100
vn -0.787000 -0.244300 -0.566500
vn -0.921600 -0.203400 -0.330500
vn -0.492100 -0.296600 -0.818400
vn -0.891800 -0.238500 -0.384300
vn -0.916900 -0.257400 -0.305000
vn 0.252100 -0.098500 -0.962700
vn 0.021300 -0.247500 -0.968600
vn 0.358600 -0.094600 -0.928700
vn -0.185500 -0.909700 -0.371400
vn 0.115300 -0.185300 -0.975900
vn 0.482400 0.238200 -0.842900
vn 0.284400 -0.136500 -0.948900
vn 0.159000 -0.221000 -0.962200
vn -0.491900 0.711900 0.501300
vn -0.822100 0.480400 0.305400
vn -0.939300 0.327900 -0.100800
vn -0.137600 -0.944900 -0.296900
vn -0.207200 -0.890500 -0.405000
vn -0.888900 -0.419800 -0.183300
vn -0.290200 0.265200 0.919500
vn -0.807700 -0.199200 0.555000
vn -0.962200 -0.244700 0.118800
vn -0.333000 0.815300 -0.473700
vn -0.619300 0.778700 0.100700
vn -0.952400 -0.238500 -0.190100
vn -0.922000 -0.375600 -0.094300
vn -0.205200 0.513200 0.833400
vn -0.926700 0.140000 0.348700
vn -0.964100 -0.257400 -0.064800
vn -0.964100 -0.251800 0.084400
vn 0.303400 0.388600 -0.870000
vn 0.603700 0.550000 -0.577100
vn 0.615800 0.766000 -0.184400
vn 0.260000 -0.363600 -0.894500
vn 0.931600 0.324900 0.163200
vn 0.783800 0.008300 -0.620900
vn 0.599100 -0.164200 -0.783700
vn -0.503200 0.363000 -0.784200
vn 0.269400 -0.178800 -0.946300
vn 0.387800 -0.191400 -0.901600
vn 0.718300 0.213500 -0.662200
vn 0.868100 -0.117300 -0.482300
vn 0.799500 0.562200 0.211600
vn 0.309700 0.824100 -0.474300
vn 0.351100 -0.313400 -0.882300
vn -0.120200 -0.838700 0.531200
vn -0.340600 -0.590900 0.731300
vn -0.507200 -0.692200 0.513400
vn -0.500900 -0.278200 0.819500
vn -0.729900 -0.393600 0.558800
vn -0.593100 0.056500 0.803100
vn -0.849500 -0.041500 0.525800
vn -0.613600 0.384300 0.689700
vn -0.850700 0.316400 0.419600
vn -0.556200 0.676300 0.483000
vn -0.732400 0.631600 0.254000
vn -0.414200 0.889600 0.192500
vn -0.508200 0.859700 0.050300
vn -0.584200 -0.811100 -0.026800
vn -0.254400 -0.963700 0.081200
vn -0.828100 -0.545200 -0.129900
vn -0.955100 -0.204500 -0.214500
vn -0.948900 0.164800 -0.269100
vn -0.809400 0.512700 -0.286100
vn -0.552800 0.790900 -0.262500
vn -0.253000 -0.842600 -0.475300
vn -0.405800 -0.585500 -0.701800
vn -0.501100 -0.247700 -0.829200
vn -0.526600 0.124600 -0.840900
vn -0.478200 0.481200 -0.734600
vn -0.361000 0.772600 -0.522300
vn 0.131100 -0.982200 0.134400
vn -0.209800 -0.894800 0.394100
vn -0.197400 0.949400 -0.244100
vn -0.062500 -0.981900 -0.178500
vn 0.508200 -0.859700 -0.050300
vn 0.732400 -0.631600 -0.254000
vn 0.846100 -0.533000 -0.003300
vn 0.850700 -0.316400 -0.419600
vn 0.974000 -0.206200 -0.093400
vn 0.849500 0.041500 -0.525800
vn 0.976700 0.133100 -0.168500
vn 0.729900 0.393600 -0.558800
vn 0.861300 0.456400 -0.223300
vn 0.507200 0.692200 -0.513400
vn 0.630500 0.734300 -0.251500
vn 0.209800 0.894800 -0.394100
vn 0.253300 -0.938900 -0.233000
vn 0.292300 -0.768300 -0.569400
vn 0.289600 -0.490700 -0.821800
vn 0.246300 -0.145800 -0.958100
vn 0.168800 0.219400 -0.960900
vn 0.067100 0.555500 -0.828800
vn -0.045100 0.815600 -0.576800
vn 0.587000 -0.804200 0.093400
vn 0.293000 0.924100 -0.245200
usemtl Material
s 1
f 66/1/1 69/2/2 64/3/3
f 71/4/4 101/5/5 97/6/6
f 70/7/7 59/8/8 89/9/9
f 67/10/10 61/11/11 60/12/12
f 68/13/13 66/1/1 63/14/14
f 69/2/2 71/4/4 65/15/15
f 72/16/16 60/12/12 59/8/8
f 67/10/10 68/13/13 62/17/17
f 87/18/18 64/19/3 65/20/15
f 86/21/19 63/22/14 64/19/3
f 85/23/20 62/24/17 63/22/14
f 85/23/20 84/25/21 61/26/11
f 84/25/21 83/27/22 60/28/12
f 83/27/22 82/29/23 59/30/8
f 97/31/6 88/32/24 65/20/15
f 82/29/23 89/33/9 59/30/8
f 115/34/25 72/16/16 70/7/7
f 114/35/26 107/36/27 101/5/5
f 113/37/28 111/38/29 66/1/1
f 109/39/30 70/7/7 100/40/31
f 108/41/32 114/35/26 71/4/4
f 110/42/33 67/10/10 72/16/16
f 111/38/29 108/41/32 69/2/2
f 110/42/33 113/37/28 68/13/13
f 98/43/34 94/44/35 95/45/36
f 105/46/37 96/47/38 97/48/6
f 89/49/9 90/50/39 104/51/40
f 91/52/41 92/53/42 99/54/43
f 102/55/44 93/56/45 94/44/35
f 103/57/46 95/45/36 96/47/38
f 90/50/39 91/52/41 106/58/47
f 99/54/43 92/53/42 93/56/45
f 96/59/38 95/60/36 87/18/18
f 95/60/36 94/61/35 86/21/19
f 94/61/35 93/62/45 85/23/20
f 85/23/20 93/62/45 92/63/42
f 84/25/21 92/63/42 91/64/41
f 83/27/22 91/64/41 90/65/39
f 97/31/6 96/59/38 88/32/24
f 82/29/23 90/65/39 89/33/9
f 104/51/40 106/58/47 122/66/48
f 121/67/49 105/46/37 101/68/5
f 120/69/50 102/55/44 98/43/34
f 100/70/31 104/51/40 117/71/51
f 116/72/52 103/57/46 105/46/37
f 106/58/47 99/54/43 118/73/53
f 119/74/54 98/43/34 103/57/46
f 118/73/53 99/54/43 102/55/44
f 141/75/55 147/76/56 115/34/25
f 146/77/57 139/78/58 107/36/27
f 145/79/59 143/80/60 111/38/29
f 144/81/61 141/75/55 109/39/30
f 140/82/62 146/77/57 114/35/26
f 147/76/56 142/83/63 110/42/33
f 143/80/60 140/82/62 108/41/32
f 142/83/63 145/79/59 113/37/28
f 149/84/64 117/71/51 122/66/48
f 153/85/65 121/67/49 107/86/27
f 152/87/66 120/69/50 119/74/54
f 144/88/61 112/89/67 117/71/51
f 148/90/68 116/72/52 121/67/49
f 154/91/69 122/66/48 118/73/53
f 151/92/70 119/74/54 116/72/52
f 150/93/71 118/73/53 120/69/50
f 53/94/72 131/95/73 125/96/74
f 81/97/75 123/98/76 130/99/77
f 55/100/78 56/101/79 127/102/80
f 73/103/81 52/104/82 125/96/74
f 57/105/83 58/106/84 130/99/77
f 53/94/72 54/107/85 126/108/86
f 56/101/79 57/105/83 124/109/87
f 54/107/85 55/100/78 129/110/88
f 133/111/89 138/112/90 75/113/91
f 137/114/92 123/115/76 81/116/75
f 77/117/93 136/118/94 135/119/95
f 73/120/81 128/121/96 133/111/89
f 79/122/97 132/123/98 137/114/92
f 75/113/91 138/112/90 134/124/99
f 78/125/100 135/119/95 132/123/98
f 76/126/101 134/124/99 136/118/94
f 125/96/74 131/95/73 147/76/56
f 130/99/77 123/98/76 139/78/58
f 129/110/88 127/102/80 143/80/60
f 128/127/96 125/96/74 141/75/55
f 124/109/87 130/99/77 146/77/57
f 131/95/73 126/108/86 142/83/63
f 127/102/80 124/109/87 140/82/62
f 126/108/86 129/110/88 145/79/59
f 133/111/89 149/84/64 154/91/69
f 137/114/92 153/85/65 139/128/58
f 136/118/94 152/87/66 151/92/70
f 128/121/96 144/88/61 149/84/64
f 132/123/98 148/90/68 153/85/65
f 138/112/90 154/91/69 150/93/71
f 135/119/95 151/92/70 148/90/68
f 134/124/99 150/93/71 152/87/66
f 63/14/14 66/1/1 64/3/3
f 65/15/15 71/4/4 97/6/6
f 100/40/31 70/7/7 89/9/9
f 72/16/16 67/10/10 60/12/12
f 62/17/17 68/13/13 63/14/14
f 64/3/3 69/2/2 65/15/15
f 70/7/7 72/16/16 59/8/8
f 61/11/11 67/10/10 62/17/17
f 88/32/24 87/18/18 65/20/15
f 87/18/18 86/21/19 64/19/3
f 86/21/19 85/23/20 63/22/14
f 62/24/17 85/23/20 61/26/11
f 61/26/11 84/25/21 60/28/12
f 60/28/12 83/27/22 59/30/8
f 109/39/30 115/34/25 70/7/7
f 71/4/4 114/35/26 101/5/5
f 68/13/13 113/37/28 66/1/1
f 112/129/67 109/39/30 100/40/31
f 69/2/2 108/41/32 71/4/4
f 115/34/25 110/42/33 72/16/16
f 66/1/1 111/38/29 69/2/2
f 67/10/10 110/42/33 68/13/13
f 103/57/46 98/43/34 95/45/36
f 101/68/5 105/46/37 97/48/6
f 100/70/31 89/49/9 104/51/40
f 106/58/47 91/52/41 99/54/43
f 98/43/34 102/55/44 94/44/35
f 105/46/37 103/57/46 96/47/38
f 104/51/40 90/50/39 106/58/47
f 102/55/44 99/54/43 93/56/45
f 88/32/24 96/59/38 87/18/18
f 87/18/18 95/60/36 86/21/19
f 86/21/19 94/61/35 85/23/20
f 84/25/21 85/23/20 92/63/42
f 83/27/22 84/25/21 91/64/41
f 82/29/23 83/27/22 90/65/39
f 117/71/51 104/51/40 122/66/48
f 107/86/27 121/67/49 101/68/5
f 119/74/54 120/69/50 98/43/34
f 112/89/67 100/70/31 117/71/51
f 121/67/49 116/72/52 105/46/37
f 122/66/48 106/58/47 118/73/53
f 116/72/52 119/74/54 103/57/46
f 120/69/50 118/73/53 102/55/44
f 109/39/30 141/75/55 115/34/25
f 114/35/26 146/77/57 107/36/27
f 113/37/28 145/79/59 111/38/29
f 112/129/67 144/81/61 109/39/30
f 108/41/32 140/82/62 114/35/26
f 115/34/25 147/76/56 110/42/33
f 111/38/29 143/80/60 108/41/32
f 110/42/33 142/83/63 113/37/28
f 154/91/69 149/84/64 122/66/48
f 139/128/58 153/85/65 107/86/27
f 151/92/70 152/87/66 119/74/54
f 149/84/64 144/88/61 117/71/51
f 153/85/65 148/90/68 121/67/49
f 150/93/71 154/91/69 118/73/53
f 148/90/68 151/92/70 116/72/52
f 152/87/66 150/93/71 120/69/50
f 52/104/82 53/94/72 125/96/74
f 58/106/84 81/97/75 130/99/77
f 129/110/88 55/100/78 127/102/80
f 128/127/96 73/103/81 125/96/74
f 124/109/87 57/105/83 130/99/77
f 131/95/73 53/94/72 126/108/86
f 127/102/80 56/101/79 124/109/87
f 126/108/86 54/107/85 129/110/88
f 74/130/102 133/111/89 75/113/91
f 80/131/103 137/114/92 81/116/75
f 78/125/100 77/117/93 135/119/95
f 74/130/102 73/120/81 133/111/89
f 80/131/103 79/122/97 137/114/92
f 76/126/101 75/113/91 134/124/99
f 79/122/97 78/125/100 132/123/98
f 77/117/93 76/126/101 136/118/94
f 141/75/55 125/96/74 147/76/56
f 146/77/57 130/99/77 139/78/58
f 145/79/59 129/110/88 143/80/60
f 144/81/61 128/127/96 141/75/55
f 140/82/62 124/109/87 146/77/57
f 147/76/56 131/95/73 142/83/63
f 143/80/60 127/102/80 140/82/62
f 142/83/63 126/108/86 145/79/59
f 138/112/90 133/111/89 154/91/69
f 123/115/76 137/114/92 139/128/58
f 135/119/95 136/118/94 151/92/70
f 133/111/89 128/121/96 149/84/64
f 137/114/92 132/123/98 153/85/65
f 134/124/99 138/112/90 150/93/71
f 132/123/98 135/119/95 148/90/68
f 136/118/94 134/124/99 152/87/66
usemtl Material.001
f 7/132/104 6/132/105 13/132/106
f 6/132/105 5/132/107 12/132/108
f 4/132/109 11/132/110 12/132/108
f 4/132/109 3/132/111 10/132/112
f 2/132/113 9/132/114 10/132/112
f 2/132/113 1/132/115 8/132/116
f 13/132/106 20/132/117 21/132/118
f 13/132/106 12/132/108 19/132/119
f 12/132/108 11/132/110 18/132/120
f 10/132/112 17/132/121 18/132/120
f 9/132/114 16/132/122 17/132/121
f 9/132/114 8/132/116 15/132/123
f 21/132/118 20/132/117 50/132/124
f 20/132/117 19/132/119 49/132/125
f 19/132/119 18/132/120 48/132/126
f 17/132/121 47/132/127 48/132/126
f 16/132/122 46/132/128 47/132/127
f 15/132/123 45/132/129 46/132/128
f 37/132/130 7/132/104 14/132/131
f 1/132/115 22/132/132 8/132/116
f 37/132/130 14/132/131 21/132/118
f 8/132/116 22/132/132 15/132/123
f 37/132/130 21/132/118 51/132/133
f 15/132/123 22/132/132 45/132/129
f 36/132/134 35/132/135 28/132/136
f 35/132/135 34/132/137 27/132/138
f 34/132/137 33/132/139 26/132/140
f 26/132/140 33/132/139 32/132/141
f 25/132/142 32/132/141 31/132/143
f 24/132/144 31/132/143 30/132/145
f 36/132/134 44/132/146 43/132/147
f 35/132/135 43/132/147 42/132/148
f 34/132/137 42/132/148 41/132/149
f 41/132/149 40/132/150 32/132/141
f 40/132/150 39/132/151 31/132/143
f 39/132/151 38/132/152 30/132/145
f 51/132/133 50/132/124 43/132/147
f 50/132/124 49/132/125 42/132/148
f 49/132/125 48/132/126 41/132/149
f 48/132/126 47/132/127 40/132/150
f 47/132/127 46/132/128 39/132/151
f 39/132/151 46/132/128 45/132/129
f 37/132/130 36/132/134 29/132/153
f 23/132/154 30/132/145 22/132/132
f 37/132/130 44/132/146 36/132/134
f 30/132/145 38/132/152 22/132/132
f 37/132/130 51/132/133 44/132/146
f 38/132/152 45/132/129 22/132/132
f 14/132/131 7/132/104 13/132/106
f 13/132/106 6/132/105 12/132/108
f 5/132/107 4/132/109 12/132/108
f 11/132/110 4/132/109 10/132/112
f 3/132/111 2/132/113 10/132/112
f 9/132/114 2/132/113 8/132/116
f 14/132/131 13/132/106 21/132/118
f 20/132/117 13/132/106 19/132/119
f 19/132/119 12/132/108 18/132/120
f 11/132/110 10/132/112 18/132/120
f 10/132/112 9/132/114 17/132/121
f 16/132/122 9/132/114 15/132/123
f 51/132/133 21/132/118 50/132/124
f 50/132/124 20/132/117 49/132/125
f 49/132/125 19/132/119 48/132/126
f 18/132/120 17/132/121 48/132/126
f 17/132/121 16/132/122 47/132/127
f 16/132/122 15/132/123 46/132/128
f 29/132/153 36/132/134 28/132/136
f 28/132/136 35/132/135 27/132/138
f 27/132/138 34/132/137 26/132/140
f 25/132/142 26/132/140 32/132/141
f 24/132/144 25/132/142 31/132/143
f 23/132/154 24/132/144 30/132/145
f 35/132/135 36/132/134 43/132/147
f 34/132/137 35/132/135 42/132/148
f 33/132/139 34/132/137 41/132/149
f 33/132/139 41/132/149 32/132/141
f 32/132/141 40/132/150 31/132/143
f 31/132/143 39/132/151 30/132/145
f 44/132/146 51/132/133 43/132/147
f 43/132/147 50/132/124 42/132/148
f 42/132/148 49/132/125 41/132/149
f 41/132/149 48/132/126 40/132/150
f 40/132/150 47/132/127 39/132/151
f 38/132/152 39/132/151 45/132/129
