# Blender v2.71 (sub 0) OBJ File: 'Elip1Animaciones.blend'
# www.blender.org
mtllib ElipPata4.mtl
o Sphere.005_Sphere.002
v -2.395306 4.182879 2.201792
v -2.357763 4.044952 2.500489
v -2.357771 3.805272 2.728973
v -2.395330 3.500326 2.852463
v -2.464720 3.176540 2.852156
v -2.555378 2.883209 2.728102
v -2.653503 2.664987 2.499184
v -2.199405 4.122049 2.061397
v -1.995786 3.932554 2.241072
v -1.884825 3.658416 2.390029
v -1.883417 3.341370 2.485593
v -1.991774 3.029684 2.513213
v -2.193401 2.770810 2.468686
v -2.457602 2.604157 2.358789
v -2.165133 4.069111 1.820958
v -1.932458 3.834737 1.796798
v -1.802083 3.530612 1.809558
v -1.793857 3.203037 1.857294
v -1.909032 2.901881 1.932741
v -2.130074 2.672993 2.024412
v -2.423330 2.551220 2.118350
v -2.464684 4.198053 1.878360
v -2.785509 4.201932 1.960264
v -3.078765 4.080159 2.054203
v -3.299806 3.851271 2.145873
v -3.414981 3.550115 2.221320
v -3.406754 3.222539 2.269057
v -3.276381 2.918415 2.281816
v -3.043706 2.684041 2.257656
v -2.751236 4.148994 1.719826
v -3.015437 3.982342 1.609929
v -3.217064 3.723468 1.565401
v -3.325421 3.411782 1.593022
v -3.324013 3.094737 1.688585
v -3.213052 2.820598 1.837543
v -3.009433 2.631103 2.017217
v -2.744154 2.555099 2.200254
v -2.555336 4.088165 1.579430
v -2.653460 3.869943 1.350513
v -2.744118 3.576612 1.226457
v -2.813509 3.252826 1.226152
v -2.851067 2.947880 1.349641
v -2.851076 2.708200 1.578126
v -2.813533 2.570273 1.876822
v -2.312563 4.055076 1.621321
v -2.204875 3.808803 1.427916
v -2.158014 3.496728 1.327590
v -2.179114 3.166361 1.335617
v -2.264963 2.867997 1.450774
v -2.402491 2.647059 1.655530
v -2.570760 2.537184 1.918712
v -2.395306 4.182879 2.201792
v -2.357763 4.044952 2.500489
v -2.357771 3.805272 2.728973
v -2.395330 3.500326 2.852463
v -2.464720 3.176540 2.852156
v -2.555379 2.883209 2.728102
v -2.653503 2.664987 2.499184
v -2.265613 4.462720 2.179463
v -2.213875 4.272643 2.591095
v -2.213886 3.942339 2.905971
v -2.328170 3.154522 3.148168
v -2.631431 1.487671 3.386900
v -2.807515 0.782748 3.274851
v -2.964660 0.353153 2.984627
v -2.568168 1.865864 3.222376
v -2.263827 3.883259 2.821598
v -2.326502 3.261016 3.005744
v -2.781126 1.002584 3.217627
v -2.309834 4.367302 2.187076
v -2.936300 0.563860 2.940382
v -2.276161 4.174080 2.551873
v -2.464684 4.198053 1.878360
v -2.785509 4.201932 1.960264
v -3.078766 4.080159 2.054203
v -3.299806 3.851271 2.145873
v -3.414981 3.550115 2.221320
v -3.406755 3.222539 2.269057
v -3.276381 2.918415 2.281816
v -3.043706 2.684041 2.257656
v -2.744155 2.555099 2.200254
v -2.611624 4.513977 2.140673
v -2.881965 4.381562 2.566979
v -3.101984 4.092159 2.899605
v -3.300806 3.322304 3.160083
v -3.519529 1.637491 3.380533
v -3.475604 0.891667 3.250734
v -3.310672 0.404411 2.945836
v -2.361223 4.483631 1.733740
v -2.803353 4.488977 1.846613
v -3.207489 4.321161 1.976069
v -3.512106 4.005730 2.102401
v -3.733353 3.223137 2.278390
v -3.929651 1.551062 2.583329
v -3.801128 0.831265 2.659824
v -3.502400 0.379411 2.651777
v -3.126120 -0.013057 2.614750
v -3.808774 1.937455 2.510679
v -3.426687 3.943583 2.119892
v -2.399980 4.376652 1.787915
v -3.094488 0.199628 2.580423
v -3.624056 3.335388 2.258797
v -3.746207 1.049708 2.620262
v -2.797269 4.391103 1.885365
v -3.460593 0.589461 2.615855
v -3.151767 4.216836 2.009892
v -3.117615 0.622380 2.651137
v -2.781753 1.528098 3.048016
v -2.426872 4.255488 2.265003
v -2.400527 3.832852 2.799213
v -2.621581 2.353772 3.086139
v -2.485284 4.348804 1.923533
v -2.445595 3.357146 2.938636
v -2.957515 1.053816 2.897818
v -2.403511 4.067568 2.569063
v -3.557341 1.565969 2.567943
v -2.822870 4.274825 2.019888
v -3.341660 3.878807 2.216672
v -3.619449 2.409270 2.503049
v -3.494982 3.415160 2.323657
v -3.378618 1.074378 2.637164
v -3.118153 4.102464 2.126714
v -2.804935 2.538457 2.297137
v -2.576253 2.748345 2.781732
v -2.444273 4.220554 2.211583
v -2.425138 3.821307 2.735627
v -2.522233 3.095917 2.901277
v -2.503421 4.258449 1.945707
v -2.456750 3.433895 2.890373
v -2.683524 2.576530 2.557998
v -2.398258 4.057121 2.523868
v -3.324548 2.784884 2.318553
v -2.769885 4.236454 2.010035
v -3.274745 3.862793 2.209738
v -3.430820 3.140282 2.338882
v -3.426297 3.481237 2.290243
v -3.089177 2.596338 2.306907
v -3.080838 4.090451 2.101365
v -3.011229 1.934134 2.582744
v -2.676747 2.363553 2.929005
v -2.435572 4.238021 2.238293
v -2.412832 3.827080 2.767420
v -2.571907 2.724844 2.993708
v -2.494353 4.303627 1.934620
v -2.451173 3.395520 2.914505
v -2.820087 2.165275 2.754827
v -2.400884 4.062345 2.546466
v -3.438688 2.400758 2.457380
v -2.796378 4.255639 2.014962
v -3.308202 3.870800 2.213206
v -3.525134 2.774776 2.420965
v -3.460639 3.448199 2.306951
v -3.233465 2.185460 2.498955
v -3.099496 4.096457 2.114039
vt 0.029965 0.705749
vt 0.019903 0.669050
vt 0.038331 0.605021
vt 0.070881 0.586699
vt 0.068481 0.567583
vt 0.104675 0.536007
vt 0.115755 0.991625
vt 0.079139 0.971126
vt 0.083315 0.962256
vt 0.049530 0.940537
vt 0.028911 0.902687
vt 0.038681 0.898406
vt 0.031431 0.836760
vt 0.019897 0.824935
vt 0.041400 0.625425
vt 0.057465 0.932161
vt 0.373376 0.071220
vt 0.395994 0.116750
vt 0.337884 0.130311
vt 0.413555 0.185166
vt 0.332556 0.192851
vt 0.413555 0.351472
vt 0.320268 0.337065
vt 0.389547 0.433603
vt 0.314431 0.405569
vt 0.366008 0.472283
vt 0.311006 0.445760
vt 0.336533 0.505824
vt 0.346612 0.027884
vt 0.342230 0.079309
vt 0.307184 0.490623
vt 0.303360 0.535494
vt 0.065611 0.918314
vt 0.074207 0.630649
vt 0.106272 0.555132
vt 0.044982 0.844431
vt 0.116970 0.980100
vt 0.086362 0.945466
vt 0.054184 0.673960
vt 0.050730 0.890911
vt 0.043947 0.749739
vt 0.725250 0.697224
vt 0.710744 0.616778
vt 0.713759 0.596523
vt 0.681315 0.578459
vt 0.645924 0.547240
vt 0.647411 0.528195
vt 0.670042 0.954560
vt 0.674210 0.963461
vt 0.637420 0.983910
vt 0.714900 0.890582
vt 0.723888 0.894876
vt 0.703910 0.932832
vt 0.723605 0.828597
vt 0.732172 0.660132
vt 0.683606 0.559431
vt 0.695947 0.924527
vt 0.732172 0.816553
vt 0.282907 0.107114
vt 0.312901 0.066067
vt 0.254024 0.171573
vt 0.225889 0.335482
vt 0.235656 0.420490
vt 0.252310 0.462595
vt 0.275686 0.500639
vt 0.687926 0.910658
vt 0.678293 0.622199
vt 0.651378 0.584439
vt 0.710012 0.836156
vt 0.711358 0.741332
vt 0.667021 0.937726
vt 0.636237 0.972346
vt 0.698647 0.665141
vt 0.703146 0.883187
vt 0.089417 0.944895
vt 0.079015 0.732929
vt 0.100993 0.592533
vt 0.047035 0.848328
vt 0.113655 0.961682
vt 0.112762 0.965976
vt 0.058898 0.751335
vt 0.067845 0.918530
vt 0.048094 0.784394
vt 0.053943 0.890929
vt 0.663963 0.937143
vt 0.685686 0.910862
vt 0.674223 0.724333
vt 0.651964 0.702278
vt 0.707081 0.840025
vt 0.706128 0.776028
vt 0.639620 0.953886
vt 0.694494 0.742774
vt 0.699882 0.883218
vt 0.092432 0.944365
vt 0.070057 0.918771
vt 0.074412 0.917049
vt 0.089629 0.774678
vt 0.115383 0.771816
vt 0.122419 0.779309
vt 0.055377 0.859694
vt 0.049084 0.852368
vt 0.052269 0.819251
vt 0.122419 0.953095
vt 0.114538 0.957518
vt 0.069876 0.801493
vt 0.066608 0.788862
vt 0.057075 0.890943
vt 0.056801 0.827883
vt 0.062901 0.888475
vt 0.679116 0.909344
vt 0.683468 0.911091
vt 0.660946 0.936601
vt 0.630789 0.770758
vt 0.637825 0.763278
vt 0.663567 0.766157
vt 0.697883 0.851530
vt 0.696353 0.819532
vt 0.700913 0.810837
vt 0.630866 0.945248
vt 0.658123 0.931604
vt 0.683236 0.793012
vt 0.659863 0.775284
vt 0.690811 0.880780
vt 0.696713 0.883240
vt 0.686518 0.780387
vt 0.704128 0.844086
vt 0.101173 0.710792
vt 0.638750 0.949709
vt 0.640501 0.958193
vt 0.095271 0.939387
vt 0.093317 0.783815
vt 0.000000 0.000000
vn 0.881000 -0.184700 -0.435600
vn 0.704500 -0.162400 0.690800
vn 0.670000 -0.430500 0.604700
vn 0.936800 -0.104600 -0.333900
vn 0.622500 -0.632100 0.461300
vn 0.142500 -0.941800 -0.304500
vn 0.504600 0.354200 -0.787300
vn 0.847500 0.530600 0.012200
vn 0.761700 -0.588500 -0.271100
vn 0.865300 0.430200 0.257300
vn 0.824900 0.227800 0.517300
vn 0.699100 -0.404700 -0.589500
vn 0.789500 -0.217100 -0.574000
vn 0.758600 0.024300 0.651100
vn 0.907100 -0.170400 -0.384900
vn 0.708000 -0.543200 -0.451200
vn -0.506600 -0.341700 0.791500
vn -0.525500 0.020200 0.850600
vn -0.494900 0.282000 0.821900
vn -0.403600 0.590600 0.698700
vn -0.218100 0.880000 0.421800
vn -0.436400 -0.615200 0.656500
vn -0.037800 0.989500 0.139100
vn 0.872600 -0.356200 -0.334300
vn 0.840800 -0.085000 -0.534700
vn 0.517700 -0.125700 -0.846300
vn 0.574400 -0.259700 -0.776200
vn 0.343600 -0.712800 -0.611400
vn 0.749300 -0.566900 -0.342300
vn 0.873100 -0.153500 -0.462600
vn 0.643500 -0.385600 -0.661200
vn 0.768200 -0.207800 -0.605600
vn 0.088800 -0.144900 -0.985400
vn -0.142300 -0.103000 -0.984400
vn -0.868900 -0.351800 -0.348200
vn -0.124500 -0.052700 -0.990800
vn -0.137100 -0.544600 -0.827400
vn -0.349300 0.589100 -0.728600
vn 0.198200 -0.398300 -0.895600
vn -0.794900 0.281500 -0.537300
vn -0.589600 0.493300 -0.639500
vn 0.310500 -0.256300 -0.915300
vn -0.910100 -0.077900 -0.406900
vn -0.732900 -0.566000 -0.377600
vn 0.035600 -0.514000 -0.857000
vn -0.843300 0.070600 -0.532600
vn -0.113400 -0.308000 -0.944600
vn 0.098800 -0.048800 -0.993900
vn 0.526800 0.117700 -0.841800
vn 0.160100 -0.252200 -0.954300
vn 0.050700 -0.167900 -0.984500
vn -0.066400 -0.527100 -0.847200
vn -0.020000 -0.100200 -0.994800
vn 0.210900 -0.381900 -0.899800
vn 0.965000 -0.158000 -0.209300
vn 0.857500 -0.290400 -0.424700
vn 0.787000 -0.244300 -0.566500
vn 0.492100 -0.296600 -0.818400
vn 0.185500 -0.909700 -0.371400
vn 0.891800 -0.238500 -0.384300
vn 0.983900 0.166600 0.064700
vn 0.921600 -0.203400 -0.330500
vn 0.916900 -0.257400 -0.305000
vn -0.252100 -0.098500 -0.962700
vn -0.482400 0.238200 -0.842900
vn -0.021300 -0.247500 -0.968600
vn 0.508300 -0.202300 -0.837100
vn -0.358600 -0.094600 -0.928700
vn -0.284400 -0.136500 -0.948900
vn -0.115300 -0.185300 -0.975900
vn -0.159000 -0.221000 -0.962200
vn 0.939300 0.327900 -0.100800
vn 0.822100 0.480400 0.305400
vn 0.491900 0.711900 0.501300
vn 0.888900 -0.419800 -0.183300
vn 0.207200 -0.890500 -0.405000
vn 0.137600 -0.944900 -0.296900
vn 0.290200 0.265200 0.919500
vn 0.964100 -0.251800 0.084400
vn 0.962200 -0.244700 0.118800
vn 0.333000 0.815300 -0.473700
vn 0.503200 0.363000 -0.784200
vn 0.952400 -0.238500 -0.190100
vn 0.964100 -0.257400 -0.064800
vn 0.926700 0.140000 0.348700
vn 0.807700 -0.199200 0.555000
vn 0.205200 0.513200 0.833400
vn -0.615800 0.766000 -0.184400
vn -0.603700 0.550000 -0.577100
vn -0.303400 0.388600 -0.870000
vn -0.260000 -0.363600 -0.894500
vn -0.931600 0.324900 0.163200
vn -0.868100 -0.117300 -0.482300
vn -0.599100 -0.164200 -0.783700
vn -0.309700 0.824100 -0.474300
vn -0.269400 -0.178800 -0.946300
vn -0.351100 -0.313400 -0.882300
vn -0.799500 0.562200 0.211600
vn -0.718300 0.213500 -0.662200
vn -0.387800 -0.191400 -0.901600
vn -0.783800 0.008300 -0.620900
vn 0.619300 0.778700 0.100700
vn 0.922000 -0.375600 -0.094300
vn 0.120200 -0.838700 0.531200
vn 0.209800 -0.894800 0.394100
vn 0.507200 -0.692200 0.513400
vn 0.340600 -0.590900 0.731300
vn 0.729900 -0.393600 0.558800
vn 0.849500 -0.041500 0.525800
vn 0.593100 0.056500 0.803100
vn 0.850700 0.316400 0.419600
vn 0.732400 0.631600 0.254000
vn 0.556200 0.676300 0.483000
vn 0.508200 0.859700 0.050300
vn 0.254400 -0.963700 0.081200
vn 0.584200 -0.811100 -0.026800
vn 0.828100 -0.545200 -0.129900
vn 0.955100 -0.204500 -0.214500
vn 0.948900 0.164800 -0.269100
vn 0.809400 0.512700 -0.286100
vn 0.552800 0.790900 -0.262500
vn 0.062500 -0.981900 -0.178500
vn 0.253000 -0.842600 -0.475300
vn 0.405800 -0.585500 -0.701800
vn 0.501100 -0.247700 -0.829200
vn 0.526600 0.124600 -0.840900
vn 0.478200 0.481200 -0.734600
vn 0.361000 0.772600 -0.522300
vn -0.131100 -0.982200 0.134400
vn 0.414200 0.889600 0.192500
vn 0.197400 0.949400 -0.244100
vn -0.846100 -0.533000 -0.003300
vn -0.732400 -0.631600 -0.254000
vn -0.508200 -0.859700 -0.050300
vn -0.974000 -0.206200 -0.093400
vn -0.850700 -0.316400 -0.419600
vn -0.976700 0.133100 -0.168500
vn -0.849500 0.041500 -0.525800
vn -0.861300 0.456400 -0.223300
vn -0.729900 0.393600 -0.558800
vn -0.630500 0.734300 -0.251500
vn -0.507200 0.692200 -0.513400
vn -0.293000 0.924100 -0.245200
vn -0.209800 0.894800 -0.394100
vn -0.292300 -0.768300 -0.569400
vn -0.253300 -0.938900 -0.233000
vn -0.289600 -0.490700 -0.821800
vn -0.246300 -0.145800 -0.958100
vn -0.168800 0.219400 -0.960900
vn -0.067100 0.555500 -0.828800
vn 0.045100 0.815600 -0.576800
vn -0.587000 -0.804200 0.093400
vn 0.500900 -0.278200 0.819500
vn 0.613600 0.384300 0.689700
usemtl Material
s 1
f 66/1/1 63/2/2 64/3/3
f 71/4/4 65/5/5 97/6/6
f 89/7/7 59/8/8 70/9/9
f 60/10/10 61/11/11 67/12/12
f 68/13/13 62/14/14 63/2/2
f 69/15/15 64/3/3 65/5/5
f 59/8/8 60/10/10 72/16/16
f 67/12/12 61/11/11 62/14/14
f 65/17/5 64/18/3 87/19/17
f 64/18/3 63/20/2 86/21/18
f 63/20/2 62/22/14 85/23/19
f 85/23/19 62/22/14 61/24/11
f 84/25/20 61/24/11 60/26/10
f 83/27/21 60/26/10 59/28/8
f 97/29/6 65/17/5 88/30/22
f 82/31/23 59/28/8 89/32/7
f 70/9/9 72/16/16 115/33/24
f 114/34/25 71/4/4 101/35/26
f 113/36/27 68/13/13 66/1/1
f 100/37/28 70/9/9 109/38/29
f 108/39/30 69/15/15 71/4/4
f 72/16/16 67/12/12 110/40/31
f 111/41/32 66/1/1 69/15/15
f 110/40/31 67/12/12 68/13/13
f 98/42/33 103/43/34 95/44/35
f 105/45/36 101/46/26 97/47/6
f 104/48/37 90/49/38 89/50/7
f 99/51/39 92/52/40 91/53/41
f 102/54/42 98/42/33 94/55/43
f 103/43/34 105/45/36 96/56/44
f 106/57/45 91/53/41 90/49/38
f 99/51/39 102/54/42 93/58/46
f 87/19/17 95/59/35 96/60/44
f 86/21/18 94/61/43 95/59/35
f 85/23/19 93/62/46 94/61/43
f 85/23/19 84/25/20 92/63/40
f 84/25/20 83/27/21 91/64/41
f 83/27/21 82/31/23 90/65/38
f 97/29/6 88/30/22 96/60/44
f 82/31/23 89/32/7 90/65/38
f 122/66/47 106/57/45 104/48/37
f 121/67/48 107/68/49 101/46/26
f 120/69/50 119/70/51 98/42/33
f 117/71/52 104/48/37 100/72/28
f 116/73/53 121/67/48 105/45/36
f 118/74/54 99/51/39 106/57/45
f 119/70/51 116/73/53 103/43/34
f 118/74/54 120/69/50 102/54/42
f 141/75/55 109/38/29 115/33/24
f 146/76/56 114/34/25 107/77/49
f 145/78/57 113/36/27 111/41/32
f 144/79/58 112/80/59 109/38/29
f 140/81/60 108/39/30 114/34/25
f 147/82/61 115/33/24 110/40/31
f 143/83/62 111/41/32 108/39/30
f 142/84/63 110/40/31 113/36/27
f 149/85/64 154/86/65 122/66/47
f 153/87/66 139/88/67 107/68/49
f 152/89/68 151/90/69 119/70/51
f 144/91/58 149/85/64 117/71/52
f 148/92/70 153/87/66 121/67/48
f 154/86/65 150/93/71 118/74/54
f 151/90/69 148/92/70 116/73/53
f 150/93/71 152/89/68 120/69/50
f 125/94/72 131/95/73 53/96/74
f 130/97/75 123/98/76 81/99/77
f 55/100/78 129/101/79 127/102/80
f 73/103/81 128/104/82 125/94/72
f 57/105/83 124/106/84 130/97/75
f 53/96/74 131/95/73 126/107/85
f 56/108/86 127/102/80 124/106/84
f 54/109/87 126/107/85 129/101/79
f 75/110/88 138/111/89 133/112/90
f 81/113/77 123/114/76 137/115/91
f 77/116/92 78/117/93 135/118/94
f 73/119/81 74/120/95 133/112/90
f 79/121/96 80/122/97 137/115/91
f 75/110/88 76/123/98 134/124/99
f 78/117/93 79/121/96 132/125/100
f 76/123/98 77/116/92 136/126/101
f 125/94/72 141/75/55 147/82/61
f 130/97/75 146/76/56 139/127/67
f 129/101/79 145/78/57 143/83/62
f 128/104/82 144/79/58 141/75/55
f 124/106/84 140/81/60 146/76/56
f 131/95/73 147/82/61 142/84/63
f 127/102/80 143/83/62 140/81/60
f 126/107/85 142/84/63 145/78/57
f 133/112/90 138/111/89 154/86/65
f 137/115/91 123/114/76 139/88/67
f 136/126/101 135/118/94 151/90/69
f 128/128/82 133/112/90 149/85/64
f 132/125/100 137/115/91 153/87/66
f 138/111/89 134/124/99 150/93/71
f 135/118/94 132/125/100 148/92/70
f 134/124/99 136/126/101 152/89/68
f 69/15/15 66/1/1 64/3/3
f 101/35/26 71/4/4 97/6/6
f 100/37/28 89/7/7 70/9/9
f 72/16/16 60/10/10 67/12/12
f 66/1/1 68/13/13 63/2/2
f 71/4/4 69/15/15 65/5/5
f 70/9/9 59/8/8 72/16/16
f 68/13/13 67/12/12 62/14/14
f 88/30/22 65/17/5 87/19/17
f 87/19/17 64/18/3 86/21/18
f 86/21/18 63/20/2 85/23/19
f 84/25/20 85/23/19 61/24/11
f 83/27/21 84/25/20 60/26/10
f 82/31/23 83/27/21 59/28/8
f 109/38/29 70/9/9 115/33/24
f 107/77/49 114/34/25 101/35/26
f 111/41/32 113/36/27 66/1/1
f 112/80/59 100/37/28 109/38/29
f 114/34/25 108/39/30 71/4/4
f 115/33/24 72/16/16 110/40/31
f 108/39/30 111/41/32 69/15/15
f 113/36/27 110/40/31 68/13/13
f 94/55/43 98/42/33 95/44/35
f 96/56/44 105/45/36 97/47/6
f 100/72/28 104/48/37 89/50/7
f 106/57/45 99/51/39 91/53/41
f 93/58/46 102/54/42 94/55/43
f 95/44/35 103/43/34 96/56/44
f 104/48/37 106/57/45 90/49/38
f 92/52/40 99/51/39 93/58/46
f 88/30/22 87/19/17 96/60/44
f 87/19/17 86/21/18 95/59/35
f 86/21/18 85/23/19 94/61/43
f 93/62/46 85/23/19 92/63/40
f 92/63/40 84/25/20 91/64/41
f 91/64/41 83/27/21 90/65/38
f 117/71/52 122/66/47 104/48/37
f 105/45/36 121/67/48 101/46/26
f 102/54/42 120/69/50 98/42/33
f 112/129/59 117/71/52 100/72/28
f 103/43/34 116/73/53 105/45/36
f 122/66/47 118/74/54 106/57/45
f 98/42/33 119/70/51 103/43/34
f 99/51/39 118/74/54 102/54/42
f 147/82/61 141/75/55 115/33/24
f 139/127/67 146/76/56 107/77/49
f 143/83/62 145/78/57 111/41/32
f 141/75/55 144/79/58 109/38/29
f 146/76/56 140/81/60 114/34/25
f 142/84/63 147/82/61 110/40/31
f 140/81/60 143/83/62 108/39/30
f 145/78/57 142/84/63 113/36/27
f 117/71/52 149/85/64 122/66/47
f 121/67/48 153/87/66 107/68/49
f 120/69/50 152/89/68 119/70/51
f 112/129/59 144/91/58 117/71/52
f 116/73/53 148/92/70 121/67/48
f 122/66/47 154/86/65 118/74/54
f 119/70/51 151/90/69 116/73/53
f 118/74/54 150/93/71 120/69/50
f 52/130/102 125/94/72 53/96/74
f 58/131/103 130/97/75 81/99/77
f 56/108/86 55/100/78 127/102/80
f 52/130/102 73/103/81 125/94/72
f 58/131/103 57/105/83 130/97/75
f 54/109/87 53/96/74 126/107/85
f 57/105/83 56/108/86 124/106/84
f 55/100/78 54/109/87 129/101/79
f 74/120/95 75/110/88 133/112/90
f 80/122/97 81/113/77 137/115/91
f 136/126/101 77/116/92 135/118/94
f 128/128/82 73/119/81 133/112/90
f 132/125/100 79/121/96 137/115/91
f 138/111/89 75/110/88 134/124/99
f 135/118/94 78/117/93 132/125/100
f 134/124/99 76/123/98 136/126/101
f 131/95/73 125/94/72 147/82/61
f 123/98/76 130/97/75 139/127/67
f 127/102/80 129/101/79 143/83/62
f 125/94/72 128/104/82 141/75/55
f 130/97/75 124/106/84 146/76/56
f 126/107/85 131/95/73 142/84/63
f 124/106/84 127/102/80 140/81/60
f 129/101/79 126/107/85 145/78/57
f 149/85/64 133/112/90 154/86/65
f 153/87/66 137/115/91 139/88/67
f 152/89/68 136/126/101 151/90/69
f 144/91/58 128/128/82 149/85/64
f 148/92/70 132/125/100 153/87/66
f 154/86/65 138/111/89 150/93/71
f 151/90/69 135/118/94 148/92/70
f 150/93/71 134/124/99 152/89/68
usemtl Material.001
f 7/132/104 14/132/105 13/132/106
f 6/132/107 13/132/106 12/132/108
f 12/132/108 11/132/109 4/132/110
f 4/132/110 11/132/109 10/132/111
f 10/132/111 9/132/112 2/132/113
f 2/132/113 9/132/112 8/132/114
f 21/132/115 20/132/116 13/132/106
f 13/132/106 20/132/116 19/132/117
f 12/132/108 19/132/117 18/132/118
f 18/132/118 17/132/119 10/132/111
f 17/132/119 16/132/120 9/132/112
f 9/132/112 16/132/120 15/132/121
f 21/132/115 51/132/122 50/132/123
f 50/132/123 49/132/124 19/132/117
f 19/132/117 49/132/124 48/132/125
f 48/132/125 47/132/126 17/132/119
f 47/132/126 46/132/127 16/132/120
f 46/132/127 45/132/128 15/132/121
f 37/132/129 14/132/105 7/132/104
f 1/132/130 8/132/114 22/132/131
f 37/132/129 21/132/115 14/132/105
f 8/132/114 15/132/121 22/132/131
f 37/132/129 51/132/122 21/132/115
f 15/132/121 45/132/128 22/132/131
f 28/132/132 35/132/133 36/132/134
f 27/132/135 34/132/136 35/132/133
f 26/132/137 33/132/138 34/132/136
f 26/132/137 25/132/139 32/132/140
f 24/132/141 31/132/142 32/132/140
f 24/132/141 23/132/143 30/132/144
f 35/132/133 43/132/145 44/132/146
f 35/132/133 34/132/136 42/132/147
f 34/132/136 33/132/138 41/132/148
f 32/132/140 40/132/149 41/132/148
f 31/132/142 39/132/150 40/132/149
f 30/132/144 38/132/151 39/132/150
f 43/132/145 50/132/123 51/132/122
f 42/132/147 49/132/124 50/132/123
f 42/132/147 41/132/148 48/132/125
f 40/132/149 47/132/126 48/132/125
f 39/132/150 46/132/127 47/132/126
f 38/132/151 45/132/128 46/132/127
f 37/132/129 29/132/152 36/132/134
f 23/132/143 22/132/131 30/132/144
f 37/132/129 36/132/134 44/132/146
f 30/132/144 22/132/131 38/132/151
f 37/132/129 44/132/146 51/132/122
f 38/132/151 22/132/131 45/132/128
f 6/132/107 7/132/104 13/132/106
f 5/132/153 6/132/107 12/132/108
f 5/132/153 12/132/108 4/132/110
f 3/132/154 4/132/110 10/132/111
f 3/132/154 10/132/111 2/132/113
f 1/132/130 2/132/113 8/132/114
f 14/132/105 21/132/115 13/132/106
f 12/132/108 13/132/106 19/132/117
f 11/132/109 12/132/108 18/132/118
f 11/132/109 18/132/118 10/132/111
f 10/132/111 17/132/119 9/132/112
f 8/132/114 9/132/112 15/132/121
f 20/132/116 21/132/115 50/132/123
f 20/132/116 50/132/123 19/132/117
f 18/132/118 19/132/117 48/132/125
f 18/132/118 48/132/125 17/132/119
f 17/132/119 47/132/126 16/132/120
f 16/132/120 46/132/127 15/132/121
f 29/132/152 28/132/132 36/132/134
f 28/132/132 27/132/135 35/132/133
f 27/132/135 26/132/137 34/132/136
f 33/132/138 26/132/137 32/132/140
f 25/132/139 24/132/141 32/132/140
f 31/132/142 24/132/141 30/132/144
f 36/132/134 35/132/133 44/132/146
f 43/132/145 35/132/133 42/132/147
f 42/132/147 34/132/136 41/132/148
f 33/132/138 32/132/140 41/132/148
f 32/132/140 31/132/142 40/132/149
f 31/132/142 30/132/144 39/132/150
f 44/132/146 43/132/145 51/132/122
f 43/132/145 42/132/147 50/132/123
f 49/132/124 42/132/147 48/132/125
f 41/132/148 40/132/149 48/132/125
f 40/132/149 39/132/150 47/132/126
f 39/132/150 38/132/151 46/132/127
