# Blender v2.71 (sub 0) OBJ File: 'enemy.blend'
# www.blender.org
mtllib DynamoAnilloExt.mtl
o Sphere.008_Sphere.032
v -2.772974 3.136933 -0.352763
v -2.774112 2.932956 -0.635698
v -2.774872 2.627682 -0.824748
v -2.775139 2.267587 -0.891134
v -2.774872 1.907492 -0.824748
v -2.774112 1.602218 -0.635698
v -2.772974 1.398241 -0.352763
v -2.357953 3.136933 -0.351926
v -2.359093 2.932956 -0.635553
v -2.359855 2.627682 -0.825067
v -2.360122 2.267587 -0.891616
v -2.359855 1.907492 -0.825067
v -2.359093 1.602218 -0.635553
v -2.357953 1.398241 -0.351926
v -2.355266 3.136933 0.316379
v -2.354128 2.932956 0.599313
v -2.353368 2.627682 0.788364
v -2.353101 2.267587 0.854750
v -2.353368 1.907492 0.788364
v -2.354128 1.602218 0.599313
v -2.355266 1.398241 0.316379
v -2.770288 3.136933 0.315542
v -2.769147 2.932956 0.599169
v -2.768385 2.627682 0.788683
v -2.768118 2.267587 0.855231
v -2.768385 1.907492 0.788683
v -2.769147 1.602218 0.599169
v -2.770288 1.398241 0.315542
v -2.771631 3.218980 -0.018611
v -2.356609 3.218980 -0.017773
v -2.771631 1.316194 -0.018611
v -2.356609 1.316194 -0.017773
v -2.817206 3.321045 -0.423620
v -2.818584 3.073869 -0.766475
v -2.819506 2.703944 -0.995563
v -2.819829 2.267587 -1.076008
v -2.819506 1.831230 -0.995563
v -2.818584 1.461305 -0.766475
v -2.817206 1.214129 -0.423620
v -2.314290 3.321045 -0.422605
v -2.315672 3.073869 -0.766300
v -2.316595 2.703944 -0.995950
v -2.316919 2.267587 -1.076592
v -2.316595 1.831230 -0.995950
v -2.315672 1.461305 -0.766300
v -2.314290 1.214129 -0.422605
v -2.311034 3.321045 0.387236
v -2.309656 3.073869 0.730090
v -2.308734 2.703944 0.959179
v -2.308411 2.267587 1.039624
v -2.308734 1.831230 0.959179
v -2.309656 1.461305 0.730090
v -2.311034 1.214129 0.387236
v -2.813950 3.321045 0.386221
v -2.812568 3.073869 0.729916
v -2.811645 2.703944 0.959565
v -2.811321 2.267587 1.040207
v -2.811645 1.831230 0.959565
v -2.812568 1.461305 0.729916
v -2.813950 1.214129 0.386221
v -2.815578 3.420468 -0.018699
v -2.312662 3.420468 -0.017685
v -2.815578 1.114705 -0.018700
v -2.312662 1.114705 -0.017685
vt 0.941983 0.443197
vt 0.874411 0.443197
vt 0.874411 0.386470
vt 0.941983 0.386470
vt 0.874411 0.329565
vt 0.941983 0.329565
vt 0.874411 0.274524
vt 0.874411 0.218438
vt 0.941983 0.218438
vt 0.874411 0.161423
vt 0.941983 0.161423
vt 0.874411 0.103498
vt 0.941983 0.103498
vt 0.874411 0.558702
vt 0.941983 0.558702
vt 0.941983 0.615867
vt 0.874411 0.615867
vt 0.941983 0.673617
vt 0.874411 0.673617
vt 0.941983 0.730136
vt 0.941983 0.787598
vt 0.874411 0.787598
vt 0.941983 0.845697
vt 0.874411 0.845697
vt 0.941983 0.903619
vt 0.874411 0.903619
vt 0.874411 0.964780
vt 0.874411 0.040142
vt 0.941983 0.040142
vt 0.874411 0.501079
vt 0.941983 0.501079
vt 0.770814 0.443197
vt 0.770814 0.386470
vt 0.843166 0.386470
vt 0.770814 0.329565
vt 0.843166 0.329565
vt 0.770814 0.274524
vt 0.843166 0.274524
vt 0.770814 0.218438
vt 0.843166 0.218438
vt 0.770814 0.161423
vt 0.843166 0.161423
vt 0.770814 0.103498
vt 0.843166 0.103498
vt 0.843166 0.558702
vt 0.843166 0.615867
vt 0.770814 0.615867
vt 0.843166 0.673617
vt 0.770814 0.673617
vt 0.843166 0.730136
vt 0.770814 0.730136
vt 0.843166 0.787598
vt 0.770814 0.787598
vt 0.843166 0.845697
vt 0.770814 0.845697
vt 0.843166 0.903619
vt 0.770814 0.903619
vt 0.843166 0.964780
vt 0.770814 0.040142
vt 0.843166 0.040142
vt 0.843166 0.501079
vt 0.770814 0.558702
vt 0.843166 0.443197
vt 0.770814 0.501079
vt 0.741267 0.787598
vt 0.741267 0.329565
vt 0.741267 0.274524
vt 0.741267 0.218438
vt 0.741267 0.161423
vt 0.741267 0.103498
vt 0.874411 0.730136
vt 0.741267 0.040142
vt 0.741267 0.673617
vt 0.741267 0.615867
vt 0.741267 0.903619
vt 0.770814 0.964780
vt 0.741267 0.730136
vt 0.741267 0.386470
vt 0.741267 0.845697
vt 0.741267 0.443197
vt 0.741267 0.558702
vt 0.741267 0.501079
vt 0.941983 0.274524
vt 0.941983 0.964780
vt 0.741267 0.964780
vn -0.664600 0.676600 0.317000
vn 0.665200 0.678600 0.311400
vn 0.664400 0.510500 0.545900
vn -0.662400 0.508200 0.550300
vn 0.660600 0.270700 0.700200
vn -0.657300 0.269400 0.703800
vn 0.659100 0.000000 0.752000
vn 0.660600 -0.270700 0.700200
vn -0.657300 -0.269400 0.703800
vn 0.664400 -0.510500 0.545900
vn -0.662400 -0.508200 0.550300
vn 0.665200 -0.678600 0.311400
vn -0.664600 -0.676600 0.317000
vn 0.664600 0.676600 -0.317000
vn -0.665200 0.678600 -0.311400
vn -0.664400 0.510500 -0.545900
vn 0.662400 0.508200 -0.550300
vn -0.660600 0.270700 -0.700200
vn 0.657300 0.269400 -0.703800
vn -0.659100 0.000000 -0.752000
vn -0.660600 -0.270700 -0.700200
vn 0.657300 -0.269400 -0.703800
vn -0.664400 -0.510500 -0.545900
vn 0.662400 -0.508200 -0.550300
vn -0.665200 -0.678600 -0.311400
vn 0.664600 -0.676600 -0.317000
vn 0.678100 -0.734900 -0.003200
vn -0.678100 -0.734900 0.003200
vn 0.678100 0.734900 -0.003200
vn -0.678100 0.734900 0.003200
vn -0.736400 -0.614700 -0.282500
vn -0.737800 -0.460700 -0.493300
vn 0.736000 -0.459800 -0.496800
vn -0.742200 -0.241500 -0.625100
vn 0.739200 -0.241100 -0.628800
vn -0.743900 0.000000 -0.668200
vn 0.740500 0.000000 -0.672000
vn -0.742200 0.241500 -0.625100
vn 0.739200 0.241100 -0.628800
vn -0.737800 0.460700 -0.493300
vn 0.736000 0.459800 -0.496800
vn -0.736400 0.614700 -0.282500
vn 0.735900 0.613500 -0.286500
vn 0.736400 -0.614700 0.282500
vn 0.737800 -0.460700 0.493300
vn -0.736000 -0.459800 0.496800
vn 0.742200 -0.241500 0.625100
vn -0.739200 -0.241100 0.628800
vn 0.743900 0.000000 0.668200
vn -0.740500 0.000000 0.672000
vn 0.742200 0.241500 0.625100
vn -0.739200 0.241100 0.628800
vn 0.737800 0.460700 0.493300
vn -0.736000 0.459800 0.496800
vn 0.736400 0.614700 0.282500
vn -0.735900 0.613500 0.286500
vn 0.724100 0.689700 -0.002100
vn -0.724100 0.689700 0.002100
vn 0.724100 -0.689700 -0.002100
vn -0.735900 -0.613500 0.286500
vn 0.735900 -0.613500 -0.286500
vn -0.724100 -0.689700 0.002100
vn -0.655300 0.000000 0.755300
vn 0.655300 0.000000 -0.755300
usemtl Material.008
s 1
f 7/1/1 14/2/2 13/3/3
f 6/4/4 13/3/3 12/5/5
f 5/6/6 12/5/5 11/7/7
f 11/7/7 10/8/8 3/9/9
f 10/8/8 9/10/10 2/11/11
f 9/10/10 8/12/12 1/13/13
f 21/14/14 28/15/15 27/16/16
f 20/17/17 27/16/16 26/18/18
f 19/19/19 26/18/18 25/20/20
f 25/20/20 24/21/21 17/22/22
f 24/21/21 23/23/23 16/24/24
f 23/23/23 22/25/25 15/26/26
f 30/27/27 15/26/26 22/25/25
f 8/12/12 30/28/27 29/29/28
f 28/15/15 21/14/14 32/30/29
f 31/31/30 32/30/29 14/2/2
f 39/32/31 38/33/32 45/34/33
f 38/33/32 37/35/34 44/36/35
f 37/35/34 36/37/36 43/38/37
f 35/39/38 42/40/39 43/38/37
f 34/41/40 41/42/41 42/40/39
f 33/43/42 40/44/43 41/42/41
f 53/45/44 52/46/45 59/47/46
f 52/46/45 51/48/47 58/49/48
f 51/48/47 50/50/49 57/51/50
f 49/52/51 56/53/52 57/51/50
f 48/54/53 55/55/54 56/53/52
f 47/56/55 54/57/56 55/55/54
f 54/57/56 47/56/55 62/58/57
f 61/59/58 62/60/57 40/44/43
f 64/61/59 53/45/44 60/62/60
f 46/63/61 64/61/59 63/64/62
f 24/65/21 56/53/52 55/55/54
f 5/66/6 37/35/34 38/33/32
f 14/2/2 32/30/29 64/61/59
f 20/17/17 52/46/45 53/45/44
f 4/67/63 3/68/9 35/39/38
f 21/14/14 53/45/44 64/61/59
f 2/69/11 1/70/13 33/43/42
f 13/3/3 14/2/2 46/63/61
f 18/71/64 50/50/49 51/48/47
f 11/7/7 12/5/5 44/36/35
f 17/22/22 16/24/24 48/54/53
f 1/70/13 29/72/28 61/59/58
f 26/73/18 27/74/16 59/47/46
f 10/8/8 42/40/39 41/42/41
f 22/75/25 54/57/56 61/76/58
f 25/77/20 57/51/50 56/53/52
f 6/78/4 38/33/32 39/32/31
f 23/79/23 55/55/54 54/57/56
f 4/67/63 36/37/36 37/35/34
f 7/80/1 39/32/31 63/64/62
f 19/19/19 51/48/47 52/46/45
f 3/68/9 2/69/11 34/41/40
f 28/81/15 31/82/30 63/64/62
f 12/5/5 13/3/3 45/34/33
f 18/71/64 17/22/22 49/52/51
f 8/12/12 40/44/43 62/60/57
f 27/74/16 28/81/15 60/62/60
f 11/7/7 43/38/37 42/40/39
f 16/24/24 15/26/26 47/56/55
f 15/26/26 30/27/27 62/58/57
f 25/77/20 26/73/18 58/49/48
f 9/10/10 41/42/41 40/44/43
f 6/4/4 7/1/1 13/3/3
f 5/6/6 6/4/4 12/5/5
f 4/83/63 5/6/6 11/7/7
f 4/83/63 11/7/7 3/9/9
f 3/9/9 10/8/8 2/11/11
f 2/11/11 9/10/10 1/13/13
f 20/17/17 21/14/14 27/16/16
f 19/19/19 20/17/17 26/18/18
f 18/71/64 19/19/19 25/20/20
f 18/71/64 25/20/20 17/22/22
f 17/22/22 24/21/21 16/24/24
f 16/24/24 23/23/23 15/26/26
f 29/84/28 30/27/27 22/25/25
f 1/13/13 8/12/12 29/29/28
f 31/31/30 28/15/15 32/30/29
f 7/1/1 31/31/30 14/2/2
f 46/63/61 39/32/31 45/34/33
f 45/34/33 38/33/32 44/36/35
f 44/36/35 37/35/34 43/38/37
f 36/37/36 35/39/38 43/38/37
f 35/39/38 34/41/40 42/40/39
f 34/41/40 33/43/42 41/42/41
f 60/62/60 53/45/44 59/47/46
f 59/47/46 52/46/45 58/49/48
f 58/49/48 51/48/47 57/51/50
f 50/50/49 49/52/51 57/51/50
f 49/52/51 48/54/53 56/53/52
f 48/54/53 47/56/55 55/55/54
f 61/76/58 54/57/56 62/58/57
f 33/43/42 61/59/58 40/44/43
f 63/64/62 64/61/59 60/62/60
f 39/32/31 46/63/61 63/64/62
f 23/79/23 24/65/21 55/55/54
f 6/78/4 5/66/6 38/33/32
f 46/63/61 14/2/2 64/61/59
f 21/14/14 20/17/17 53/45/44
f 36/37/36 4/67/63 35/39/38
f 32/30/29 21/14/14 64/61/59
f 34/41/40 2/69/11 33/43/42
f 45/34/33 13/3/3 46/63/61
f 19/19/19 18/71/64 51/48/47
f 43/38/37 11/7/7 44/36/35
f 49/52/51 17/22/22 48/54/53
f 33/43/42 1/70/13 61/59/58
f 58/49/48 26/73/18 59/47/46
f 9/10/10 10/8/8 41/42/41
f 29/85/28 22/75/25 61/76/58
f 24/65/21 25/77/20 56/53/52
f 7/80/1 6/78/4 39/32/31
f 22/75/25 23/79/23 54/57/56
f 5/66/6 4/67/63 37/35/34
f 31/82/30 7/80/1 63/64/62
f 20/17/17 19/19/19 52/46/45
f 35/39/38 3/68/9 34/41/40
f 60/62/60 28/81/15 63/64/62
f 44/36/35 12/5/5 45/34/33
f 50/50/49 18/71/64 49/52/51
f 30/28/27 8/12/12 62/60/57
f 59/47/46 27/74/16 60/62/60
f 10/8/8 11/7/7 42/40/39
f 48/54/53 16/24/24 47/56/55
f 47/56/55 15/26/26 62/58/57
f 57/51/50 25/77/20 58/49/48
f 8/12/12 9/10/10 40/44/43
