# Blender v2.71 (sub 0) OBJ File: 'enemy.blend'
# www.blender.org
mtllib DynamoAnilloInt.mtl
o Sphere.012_Sphere.033
v -2.824265 2.941409 0.140311
v -3.045349 2.783308 0.139430
v -3.193073 2.546693 0.138841
v -3.244946 2.267587 0.138634
v -3.193073 1.988481 0.138841
v -3.045349 1.751866 0.139430
v -2.824265 1.593765 0.140311
v -2.826187 2.941409 -0.178777
v -3.047812 2.783308 -0.179661
v -3.195898 2.546693 -0.180251
v -3.247899 2.267587 -0.180459
v -3.195898 1.988481 -0.180251
v -3.047812 1.751866 -0.179661
v -2.826187 1.593765 -0.178777
v -2.303975 2.941409 -0.176695
v -2.082891 2.783308 -0.175814
v -1.935168 2.546693 -0.175225
v -1.883294 2.267587 -0.175018
v -1.935168 1.988481 -0.175225
v -2.082891 1.751866 -0.175814
v -2.303975 1.593765 -0.176695
v -2.302053 2.941409 0.142393
v -2.080428 2.783308 0.143277
v -1.932342 2.546693 0.143867
v -1.880341 2.267587 0.144075
v -1.932342 1.988481 0.143867
v -2.080428 1.751866 0.143277
v -2.302053 1.593765 0.142393
v -2.563159 3.005002 0.141352
v -2.565081 3.005002 -0.177736
v -2.563159 1.530171 0.141352
v -2.565081 1.530171 -0.177736
v -2.879359 3.084113 0.173879
v -3.147265 2.892529 0.172811
v -3.326274 2.605803 0.172097
v -3.389133 2.267587 0.171847
v -3.326274 1.929371 0.172097
v -3.147265 1.642645 0.172811
v -2.879359 1.451061 0.173879
v -2.881688 3.084113 -0.212786
v -3.150250 2.892529 -0.213857
v -3.329698 2.605803 -0.214573
v -3.392711 2.267587 -0.214824
v -3.329698 1.929371 -0.214573
v -3.150250 1.642645 -0.213857
v -2.881688 1.451061 -0.212786
v -2.248881 3.084113 -0.210263
v -1.980975 2.892529 -0.209195
v -1.801966 2.605803 -0.208481
v -1.739107 2.267587 -0.208231
v -1.801966 1.929371 -0.208481
v -1.980975 1.642645 -0.209195
v -2.248881 1.451061 -0.210263
v -2.246552 3.084113 0.176402
v -1.977990 2.892529 0.177473
v -1.798542 2.605803 0.178189
v -1.735529 2.267587 0.178440
v -1.798542 1.929371 0.178189
v -1.977990 1.642645 0.177473
v -2.246552 1.451061 0.176402
v -2.562955 3.161174 0.175141
v -2.565284 3.161174 -0.211525
v -2.562955 1.374000 0.175141
v -2.565284 1.374000 -0.211525
vt 0.574853 0.437866
vt 0.627220 0.437866
vt 0.627220 0.482174
vt 0.574853 0.482174
vt 0.627220 0.526938
vt 0.574853 0.526938
vt 0.627220 0.570746
vt 0.627220 0.615287
vt 0.574853 0.615287
vt 0.627220 0.660321
vt 0.574853 0.660321
vt 0.627220 0.705219
vt 0.574853 0.705219
vt 0.627220 0.348339
vt 0.574853 0.348339
vt 0.574853 0.304373
vt 0.627220 0.304373
vt 0.574853 0.260269
vt 0.627220 0.260269
vt 0.574853 0.217608
vt 0.574853 0.174138
vt 0.627220 0.174138
vt 0.574853 0.129949
vt 0.627220 0.129949
vt 0.574853 0.085054
vt 0.627220 0.085054
vt 0.627220 0.035949
vt 0.627220 0.752628
vt 0.574853 0.752628
vt 0.627220 0.393202
vt 0.574853 0.393202
vt 0.550634 0.437866
vt 0.550634 0.482174
vt 0.494551 0.482174
vt 0.550634 0.526938
vt 0.494551 0.526938
vt 0.550634 0.570746
vt 0.494551 0.570746
vt 0.550634 0.615287
vt 0.494551 0.615287
vt 0.550634 0.660321
vt 0.494551 0.660321
vt 0.550634 0.705219
vt 0.494551 0.705219
vt 0.494551 0.348339
vt 0.494551 0.304373
vt 0.550634 0.304373
vt 0.494551 0.260269
vt 0.550634 0.260269
vt 0.494551 0.217608
vt 0.550634 0.217608
vt 0.494551 0.174138
vt 0.550634 0.174138
vt 0.494551 0.129949
vt 0.550634 0.129949
vt 0.494551 0.085054
vt 0.550634 0.085054
vt 0.494551 0.035949
vt 0.550634 0.752628
vt 0.494551 0.752628
vt 0.494551 0.393202
vt 0.550634 0.348339
vt 0.494551 0.437866
vt 0.550634 0.393202
vt 0.471651 0.437866
vt 0.471651 0.393202
vt 0.471651 0.304373
vt 0.574853 0.570746
vt 0.471651 0.348339
vt 0.471651 0.482174
vt 0.471651 0.217608
vt 0.471651 0.570746
vt 0.471651 0.526938
vt 0.471651 0.174138
vt 0.471651 0.129949
vt 0.471651 0.615287
vt 0.550634 0.035949
vt 0.471651 0.260269
vt 0.471651 0.705219
vt 0.471651 0.085054
vt 0.471651 0.035949
vt 0.471651 0.660321
vt 0.627220 0.217608
vt 0.574853 0.035949
vt 0.471651 0.752628
vn 0.309400 0.679500 0.665200
vn 0.314400 0.676500 -0.665900
vn 0.546000 0.508600 -0.665700
vn 0.544700 0.513000 0.663400
vn 0.698700 0.269800 -0.662500
vn 0.701100 0.273000 0.658700
vn 0.750100 0.000000 -0.661300
vn 0.698700 -0.269800 -0.662500
vn 0.701100 -0.273000 0.658700
vn 0.546000 -0.508600 -0.665700
vn 0.544700 -0.513000 0.663400
vn 0.314400 -0.676500 -0.665900
vn 0.309400 -0.679500 0.665200
vn -0.309400 0.679500 -0.665200
vn -0.314400 0.676500 0.665900
vn -0.546000 0.508600 0.665700
vn -0.544700 0.513000 -0.663400
vn -0.698700 0.269800 0.662500
vn -0.701100 0.273000 -0.658700
vn -0.750100 0.000000 0.661300
vn -0.698700 -0.269800 0.662500
vn -0.701100 -0.273000 -0.658700
vn -0.546000 -0.508600 0.665700
vn -0.544700 -0.513000 -0.663400
vn -0.314400 -0.676500 0.665900
vn -0.309400 -0.679500 -0.665200
vn 0.003500 -0.734700 -0.678400
vn -0.003500 -0.734700 0.678400
vn 0.003500 0.734700 -0.678400
vn -0.003500 0.734700 0.678400
vn -0.284400 -0.614300 0.736000
vn -0.494000 -0.461100 0.737100
vn -0.493700 -0.464600 -0.735100
vn -0.626100 -0.242100 0.741100
vn -0.629000 -0.244800 -0.737800
vn -0.669500 0.000000 0.742800
vn -0.673800 0.000000 -0.738900
vn -0.626100 0.242100 0.741100
vn -0.629000 0.244800 -0.737800
vn -0.494000 0.461100 0.737100
vn -0.493700 0.464600 -0.735100
vn -0.284400 0.614300 0.736000
vn -0.281300 0.616400 -0.735400
vn 0.284400 -0.614300 -0.736000
vn 0.494000 -0.461100 -0.737100
vn 0.493700 -0.464600 0.735100
vn 0.626100 -0.242100 -0.741100
vn 0.629000 -0.244800 0.737800
vn 0.669500 0.000000 -0.742800
vn 0.673800 0.000000 0.738900
vn 0.626100 0.242100 -0.741100
vn 0.629000 0.244800 0.737800
vn 0.494000 0.461100 -0.737100
vn 0.493700 0.464600 0.735100
vn 0.284400 0.614300 -0.736000
vn 0.281300 0.616400 0.735400
vn 0.001600 0.689800 -0.724000
vn -0.001600 0.689800 0.724000
vn 0.001600 -0.689800 -0.724000
vn 0.281300 -0.616400 0.735400
vn -0.281300 -0.616400 -0.735400
vn -0.001600 -0.689800 0.724000
vn 0.754000 0.000000 0.656800
vn -0.754000 0.000000 -0.656800
usemtl Material.008
s 1
f 7/1/1 14/2/2 13/3/3
f 6/4/4 13/3/3 12/5/5
f 5/6/6 12/5/5 11/7/7
f 11/7/7 10/8/8 3/9/9
f 10/8/8 9/10/10 2/11/11
f 9/10/10 8/12/12 1/13/13
f 21/14/14 28/15/15 27/16/16
f 20/17/17 27/16/16 26/18/18
f 19/19/19 26/18/18 25/20/20
f 25/20/20 24/21/21 17/22/22
f 24/21/21 23/23/23 16/24/24
f 23/23/23 22/25/25 15/26/26
f 30/27/27 15/26/26 22/25/25
f 8/12/12 30/28/27 29/29/28
f 28/15/15 21/14/14 32/30/29
f 31/31/30 32/30/29 14/2/2
f 39/32/31 38/33/32 45/34/33
f 38/33/32 37/35/34 44/36/35
f 37/35/34 36/37/36 43/38/37
f 35/39/38 42/40/39 43/38/37
f 34/41/40 41/42/41 42/40/39
f 33/43/42 40/44/43 41/42/41
f 53/45/44 52/46/45 59/47/46
f 52/46/45 51/48/47 58/49/48
f 51/48/47 50/50/49 57/51/50
f 49/52/51 56/53/52 57/51/50
f 48/54/53 55/55/54 56/53/52
f 47/56/55 54/57/56 55/55/54
f 54/57/56 47/56/55 62/58/57
f 61/59/58 62/60/57 40/44/43
f 64/61/59 53/45/44 60/62/60
f 46/63/61 64/61/59 63/64/62
f 24/21/21 56/53/52 55/55/54
f 5/6/6 37/35/34 38/33/32
f 14/65/2 32/66/29 64/61/59
f 20/67/17 52/46/45 53/45/44
f 4/68/63 3/9/9 35/39/38
f 21/69/14 53/45/44 64/61/59
f 2/11/11 1/13/13 33/43/42
f 13/70/3 14/65/2 46/63/61
f 18/71/64 50/50/49 51/48/47
f 11/72/7 12/73/5 44/36/35
f 17/74/22 16/75/24 48/54/53
f 1/13/13 29/29/28 61/59/58
f 26/18/18 27/16/16 59/47/46
f 10/76/8 42/40/39 41/42/41
f 22/25/25 54/57/56 61/77/58
f 25/20/20 57/51/50 56/53/52
f 6/4/4 38/33/32 39/32/31
f 23/23/23 55/55/54 54/57/56
f 4/68/63 36/37/36 37/35/34
f 7/1/1 39/32/31 63/64/62
f 19/78/19 51/48/47 52/46/45
f 3/9/9 2/11/11 34/41/40
f 28/15/15 31/31/30 63/64/62
f 12/73/5 13/70/3 45/34/33
f 18/71/64 17/74/22 49/52/51
f 8/79/12 40/44/43 62/60/57
f 27/16/16 28/15/15 60/62/60
f 11/72/7 43/38/37 42/40/39
f 16/75/24 15/80/26 47/56/55
f 15/80/26 30/81/27 62/58/57
f 25/20/20 26/18/18 58/49/48
f 9/82/10 41/42/41 40/44/43
f 6/4/4 7/1/1 13/3/3
f 5/6/6 6/4/4 12/5/5
f 4/68/63 5/6/6 11/7/7
f 4/68/63 11/7/7 3/9/9
f 3/9/9 10/8/8 2/11/11
f 2/11/11 9/10/10 1/13/13
f 20/17/17 21/14/14 27/16/16
f 19/19/19 20/17/17 26/18/18
f 18/83/64 19/19/19 25/20/20
f 18/83/64 25/20/20 17/22/22
f 17/22/22 24/21/21 16/24/24
f 16/24/24 23/23/23 15/26/26
f 29/84/28 30/27/27 22/25/25
f 1/13/13 8/12/12 29/29/28
f 31/31/30 28/15/15 32/30/29
f 7/1/1 31/31/30 14/2/2
f 46/63/61 39/32/31 45/34/33
f 45/34/33 38/33/32 44/36/35
f 44/36/35 37/35/34 43/38/37
f 36/37/36 35/39/38 43/38/37
f 35/39/38 34/41/40 42/40/39
f 34/41/40 33/43/42 41/42/41
f 60/62/60 53/45/44 59/47/46
f 59/47/46 52/46/45 58/49/48
f 58/49/48 51/48/47 57/51/50
f 50/50/49 49/52/51 57/51/50
f 49/52/51 48/54/53 56/53/52
f 48/54/53 47/56/55 55/55/54
f 61/77/58 54/57/56 62/58/57
f 33/43/42 61/59/58 40/44/43
f 63/64/62 64/61/59 60/62/60
f 39/32/31 46/63/61 63/64/62
f 23/23/23 24/21/21 55/55/54
f 6/4/4 5/6/6 38/33/32
f 46/63/61 14/65/2 64/61/59
f 21/69/14 20/67/17 53/45/44
f 36/37/36 4/68/63 35/39/38
f 32/66/29 21/69/14 64/61/59
f 34/41/40 2/11/11 33/43/42
f 45/34/33 13/70/3 46/63/61
f 19/78/19 18/71/64 51/48/47
f 43/38/37 11/72/7 44/36/35
f 49/52/51 17/74/22 48/54/53
f 33/43/42 1/13/13 61/59/58
f 58/49/48 26/18/18 59/47/46
f 9/82/10 10/76/8 41/42/41
f 29/84/28 22/25/25 61/77/58
f 24/21/21 25/20/20 56/53/52
f 7/1/1 6/4/4 39/32/31
f 22/25/25 23/23/23 54/57/56
f 5/6/6 4/68/63 37/35/34
f 31/31/30 7/1/1 63/64/62
f 20/67/17 19/78/19 52/46/45
f 35/39/38 3/9/9 34/41/40
f 60/62/60 28/15/15 63/64/62
f 44/36/35 12/73/5 45/34/33
f 50/50/49 18/71/64 49/52/51
f 30/85/27 8/79/12 62/60/57
f 59/47/46 27/16/16 60/62/60
f 10/76/8 11/72/7 42/40/39
f 48/54/53 16/75/24 47/56/55
f 47/56/55 15/80/26 62/58/57
f 57/51/50 25/20/20 58/49/48
f 8/79/12 9/82/10 40/44/43
