# Blender v2.71 (sub 0) OBJ File: 'enemy.blend'
# www.blender.org
mtllib DynamoNucleo.mtl
o Sphere.003_Sphere.005
v -2.806555 2.845599 -0.019159
v -3.012081 2.709979 -0.019979
v -3.149410 2.507008 -0.020526
v -3.197633 2.267587 -0.020718
v -3.149410 2.028166 -0.020526
v -3.012081 1.825195 -0.019979
v -2.806555 1.689574 -0.019159
v -2.736231 2.845599 -0.188920
v -2.882140 2.709979 -0.333655
v -2.979633 2.507008 -0.430365
v -3.013868 2.267587 -0.464325
v -2.979633 2.028166 -0.430365
v -2.882140 1.825195 -0.333655
v -2.736231 1.689574 -0.188920
v -2.565087 2.845599 -0.258670
v -2.565907 2.709979 -0.462538
v -2.566454 2.507008 -0.598758
v -2.566647 2.267587 -0.646592
v -2.566454 2.028166 -0.598758
v -2.565907 1.825195 -0.462538
v -2.565087 1.689574 -0.258670
v -2.564120 2.893223 -0.018192
v -2.393376 2.845599 -0.187552
v -2.248627 2.709979 -0.331129
v -2.151908 2.507008 -0.427064
v -2.117945 2.267587 -0.460752
v -2.151908 2.028166 -0.427064
v -2.248627 1.825195 -0.331129
v -2.393376 1.689574 -0.187552
v -2.321685 2.845599 -0.017225
v -2.116159 2.709979 -0.016406
v -1.978830 2.507008 -0.015858
v -1.930607 2.267587 -0.015666
v -1.978830 2.028166 -0.015858
v -2.116159 1.825195 -0.016406
v -2.321685 1.689574 -0.017225
v -2.564120 1.641951 -0.018192
v -2.392009 2.845599 0.152535
v -2.246100 2.709979 0.297271
v -2.148607 2.507008 0.393981
v -2.114372 2.267587 0.427940
v -2.148607 2.028166 0.393981
v -2.246100 1.825195 0.297271
v -2.392009 1.689574 0.152535
v -2.563153 2.845599 0.222286
v -2.562334 2.709979 0.426154
v -2.561786 2.507008 0.562374
v -2.561594 2.267587 0.610208
v -2.561786 2.028166 0.562374
v -2.562334 1.825195 0.426154
v -2.563153 1.689574 0.222286
v -2.734864 2.845599 0.151168
v -2.879613 2.709979 0.294745
v -2.976332 2.507008 0.390680
v -3.010295 2.267587 0.424367
v -2.976332 2.028166 0.390680
v -2.879613 1.825195 0.294745
v -2.734864 1.689574 0.151168
vt 0.281898 0.388090
vt 0.268395 0.345399
vt 0.306593 0.333737
vt 0.251531 0.400409
vt 0.240773 0.350910
vt 0.220876 0.406549
vt 0.215550 0.353142
vt 0.188285 0.407149
vt 0.189592 0.353261
vt 0.151549 0.401692
vt 0.159193 0.351695
vt 0.102819 0.388485
vt 0.112951 0.348510
vt 0.262845 0.304865
vt 0.303144 0.298015
vt 0.236359 0.307394
vt 0.213258 0.308090
vt 0.189871 0.308030
vt 0.162246 0.307988
vt 0.118275 0.309276
vt 0.261224 0.264850
vt 0.234688 0.265835
vt 0.212055 0.265903
vt 0.189422 0.265990
vt 0.162891 0.267045
vt 0.120779 0.271128
vt 0.303371 0.260987
vt 0.262022 0.223836
vt 0.234308 0.223728
vt 0.210849 0.223652
vt 0.187677 0.224370
vt 0.161115 0.226976
vt 0.120725 0.234056
vt 0.265232 0.179925
vt 0.311769 0.183317
vt 0.234652 0.178291
vt 0.208542 0.178398
vt 0.183172 0.180664
vt 0.155395 0.186271
vt 0.117000 0.198178
vt 0.273057 0.129563
vt 0.322195 0.143025
vt 0.236024 0.124017
vt 0.203171 0.124614
vt 0.172273 0.130824
vt 0.141671 0.143295
vt 0.106659 0.164377
vt 0.296161 0.063182
vt 0.342665 0.104181
vt 0.242723 0.043323
vt 0.189814 0.044771
vt 0.143905 0.064393
vt 0.109103 0.097039
vt 0.084120 0.137011
vt 0.379377 0.148306
vt 0.384625 0.091142
vt 0.423514 0.111598
vt 0.048805 0.133557
vt 0.062299 0.177907
vt 0.021392 0.156091
vt 0.436547 0.153565
vt 0.017945 0.191412
vt 0.416081 0.192456
vt 0.040489 0.218825
vt 0.374106 0.205482
vt 0.075816 0.222264
vt 0.335215 0.185007
vt 0.103228 0.199710
vt 0.338880 0.394391
vt 0.314099 0.433952
vt 0.279600 0.466264
vt 0.234107 0.485689
vt 0.181681 0.487126
vt 0.128727 0.467476
vt 0.082635 0.426914
vt 0.316646 0.367306
vt 0.306161 0.222758
vn -0.725900 -0.687700 0.002400
vn -0.511600 -0.687700 -0.515000
vn -0.294900 -0.908000 -0.297500
vn -0.928900 -0.370200 0.002500
vn -0.655000 -0.370200 -0.658700
vn -1.000000 0.000000 0.002500
vn -0.705300 0.000000 -0.708900
vn -0.928900 0.370200 0.002500
vn -0.655000 0.370200 -0.658700
vn -0.725900 0.687700 0.002400
vn -0.511600 0.687700 -0.515000
vn -0.418900 0.908000 0.001800
vn -0.294900 0.908000 -0.297500
vn 0.002300 -0.685400 -0.728100
vn 0.001800 -0.907100 -0.420900
vn 0.002500 -0.368100 -0.929700
vn 0.002500 0.000000 -1.000000
vn 0.002500 0.368100 -0.929700
vn 0.002300 0.685400 -0.728100
vn 0.001800 0.907100 -0.420900
vn 0.513100 -0.685400 -0.516500
vn 0.655600 -0.368100 -0.659200
vn 0.705300 0.000000 -0.708900
vn 0.655600 0.368100 -0.659200
vn 0.513100 0.685400 -0.516500
vn 0.296300 0.907100 -0.298900
vn 0.296300 -0.907100 -0.298900
vn 0.725900 -0.687700 -0.002400
vn 0.928900 -0.370200 -0.002500
vn 1.000000 0.000000 -0.002500
vn 0.928900 0.370200 -0.002500
vn 0.725900 0.687700 -0.002400
vn 0.418900 0.908000 -0.001800
vn 0.511600 -0.687700 0.515000
vn 0.294900 -0.908000 0.297500
vn 0.655000 -0.370200 0.658700
vn 0.705300 0.000000 0.708900
vn 0.655000 0.370200 0.658700
vn 0.511600 0.687700 0.515000
vn 0.294900 0.908000 0.297500
vn -0.002300 -0.685400 0.728100
vn -0.001800 -0.907100 0.420900
vn -0.002500 -0.368100 0.929700
vn -0.002500 0.000000 1.000000
vn -0.002500 0.368100 0.929700
vn -0.002300 0.685400 0.728100
vn -0.001800 0.907100 0.420900
vn -0.513100 -0.685400 0.516500
vn -0.296300 -0.907100 0.298900
vn -0.655600 -0.368100 0.659200
vn -0.705300 0.000000 0.708900
vn -0.655600 0.368100 0.659200
vn -0.513100 0.685400 0.516500
vn -0.296300 0.907100 0.298900
vn 0.000000 -1.000000 0.000000
vn -0.418900 -0.908000 0.001800
vn 0.000000 1.000000 0.000000
vn 0.418900 -0.908000 -0.001800
usemtl Material.009
s 1
f 6/1/1 13/2/2 14/3/3
f 6/1/1 5/4/4 12/5/5
f 4/6/6 11/7/7 12/5/5
f 4/6/6 3/8/8 10/9/9
f 2/10/10 9/11/11 10/9/9
f 1/12/12 8/13/13 9/11/11
f 13/2/2 20/14/14 21/15/15
f 12/5/5 19/16/16 20/14/14
f 11/7/7 18/17/17 19/16/16
f 10/9/9 17/18/18 18/17/17
f 10/9/9 9/11/11 16/19/19
f 8/13/13 15/20/20 16/19/19
f 21/15/15 20/14/14 28/21/21
f 19/16/16 27/22/22 28/21/21
f 18/17/17 26/23/23 27/22/22
f 17/18/18 25/24/24 26/23/23
f 17/18/18 16/19/19 24/25/25
f 16/19/19 15/20/20 23/26/26
f 29/27/27 28/21/21 35/28/28
f 27/22/22 34/29/29 35/28/28
f 27/22/22 26/23/23 33/30/30
f 25/24/24 32/31/31 33/30/30
f 24/25/25 31/32/32 32/31/31
f 23/26/26 30/33/33 31/32/32
f 35/28/28 43/34/34 44/35/35
f 34/29/29 42/36/36 43/34/34
f 33/30/30 41/37/37 42/36/36
f 32/31/31 40/38/38 41/37/37
f 31/32/32 39/39/39 40/38/38
f 30/33/33 38/40/40 39/39/39
f 43/34/34 50/41/41 51/42/42
f 42/36/36 49/43/43 50/41/41
f 41/37/37 48/44/44 49/43/43
f 40/38/38 47/45/45 48/44/44
f 40/38/38 39/39/39 46/46/46
f 38/40/40 45/47/47 46/46/46
f 50/41/41 57/48/48 58/49/49
f 49/43/43 56/50/50 57/48/48
f 49/43/43 48/44/44 55/51/51
f 47/45/45 54/52/52 55/51/51
f 46/46/46 53/53/53 54/52/52
f 46/46/46 45/47/47 52/54/54
f 37/55/55 7/56/56 14/57/3
f 1/58/12 22/59/57 8/60/13
f 37/55/55 14/57/3 21/61/15
f 8/60/13 22/59/57 15/62/20
f 37/55/55 21/61/15 29/63/27
f 15/62/20 22/59/57 23/64/26
f 37/55/55 29/63/27 36/65/58
f 23/64/26 22/59/57 30/66/33
f 37/55/55 36/65/58 44/67/35
f 30/66/33 22/59/57 38/68/40
f 37/55/55 44/67/35 51/42/42
f 38/68/40 22/59/57 45/47/47
f 37/55/55 51/42/42 58/49/49
f 45/47/47 22/59/57 52/54/54
f 37/55/55 58/49/49 7/56/56
f 58/69/49 57/70/48 6/1/1
f 56/71/50 5/4/4 6/1/1
f 55/72/51 4/6/6 5/4/4
f 54/73/52 3/8/8 4/6/6
f 53/74/53 2/10/10 3/8/8
f 52/75/54 1/12/12 2/10/10
f 52/54/54 22/59/57 1/58/12
f 7/76/56 6/1/1 14/3/3
f 13/2/2 6/1/1 12/5/5
f 5/4/4 4/6/6 12/5/5
f 11/7/7 4/6/6 10/9/9
f 3/8/8 2/10/10 10/9/9
f 2/10/10 1/12/12 9/11/11
f 14/3/3 13/2/2 21/15/15
f 13/2/2 12/5/5 20/14/14
f 12/5/5 11/7/7 19/16/16
f 11/7/7 10/9/9 18/17/17
f 17/18/18 10/9/9 16/19/19
f 9/11/11 8/13/13 16/19/19
f 29/27/27 21/15/15 28/21/21
f 20/14/14 19/16/16 28/21/21
f 19/16/16 18/17/17 27/22/22
f 18/17/17 17/18/18 26/23/23
f 25/24/24 17/18/18 24/25/25
f 24/25/25 16/19/19 23/26/26
f 36/77/58 29/27/27 35/28/28
f 28/21/21 27/22/22 35/28/28
f 34/29/29 27/22/22 33/30/30
f 26/23/23 25/24/24 33/30/30
f 25/24/24 24/25/25 32/31/31
f 24/25/25 23/26/26 31/32/32
f 36/77/58 35/28/28 44/35/35
f 35/28/28 34/29/29 43/34/34
f 34/29/29 33/30/30 42/36/36
f 33/30/30 32/31/31 41/37/37
f 32/31/31 31/32/32 40/38/38
f 31/32/32 30/33/33 39/39/39
f 44/35/35 43/34/34 51/42/42
f 43/34/34 42/36/36 50/41/41
f 42/36/36 41/37/37 49/43/43
f 41/37/37 40/38/38 48/44/44
f 47/45/45 40/38/38 46/46/46
f 39/39/39 38/40/40 46/46/46
f 51/42/42 50/41/41 58/49/49
f 50/41/41 49/43/43 57/48/48
f 56/50/50 49/43/43 55/51/51
f 48/44/44 47/45/45 55/51/51
f 47/45/45 46/46/46 54/52/52
f 53/53/53 46/46/46 52/54/54
f 7/76/56 58/69/49 6/1/1
f 57/70/48 56/71/50 6/1/1
f 56/71/50 55/72/51 5/4/4
f 55/72/51 54/73/52 4/6/6
f 54/73/52 53/74/53 3/8/8
f 53/74/53 52/75/54 2/10/10
