# Blender v2.71 (sub 0) OBJ File: 'enemy.blend'
# www.blender.org
mtllib Rift.mtl
o Sphere.011_Sphere.026
v 10.921449 0.812643 0.290739
v 10.559690 0.727142 0.440585
v 10.432657 0.035886 0.493204
v 11.612705 0.025096 0.981995
v 10.921449 0.812643 -0.686845
v 10.559690 0.727142 -0.836690
v 10.432656 0.035886 -0.889309
v 12.590290 0.025096 0.981995
v 11.612705 0.812643 -1.378101
v 11.462859 0.727142 -1.739861
v 11.410241 0.035886 -1.866894
v 13.281546 0.025096 0.290739
v 13.281546 0.025096 -0.686846
v 12.590289 0.812643 -1.378102
v 12.740135 0.727142 -1.739861
v 12.792753 0.035886 -1.866894
v 12.590289 0.025096 -1.378102
v 13.281546 0.812643 -0.686846
v 13.643305 0.727142 -0.836691
v 13.770338 0.035886 -0.889310
v 11.612705 0.025096 -1.378101
v 13.281546 0.812643 0.290739
v 13.643305 0.727142 0.440584
v 13.770338 0.035886 0.493203
v 10.921449 0.025096 -0.686845
v 12.590290 0.812643 0.981995
v 12.740135 0.727142 1.343754
v 12.792754 0.035886 1.470787
v 10.921449 0.025096 0.290739
v 11.612705 0.812643 0.981995
v 11.462860 0.727142 1.343754
v 11.410241 0.035886 1.470787
v 11.235286 1.143838 0.059449
v 11.094869 1.357623 0.138390
v 11.235286 1.143838 -0.455555
v 11.094869 1.357623 -0.534496
v 11.845652 1.143838 -1.064265
v 11.767220 1.357623 -1.204682
v 12.357343 1.143838 -1.064264
v 12.435775 1.357623 -1.204682
v 12.967709 1.143838 -0.455556
v 13.108126 1.357622 -0.534497
v 12.967709 1.143838 0.059449
v 13.108126 1.357623 0.138390
v 12.357343 1.143838 0.668158
v 12.435776 1.357622 0.808575
v 11.845653 1.143838 0.668158
v 11.767220 1.357623 0.808575
vt 0.732537 0.147436
vt 0.615655 0.124638
vt 0.623384 0.059384
vt 0.142337 0.432513
vt 0.230022 0.432513
vt 0.209128 0.473438
vt 0.496683 0.119500
vt 0.494609 0.053823
vt 0.600202 0.158660
vt 0.509145 0.154727
vt 0.378272 0.132134
vt 0.366442 0.067498
vt 0.949709 0.243592
vt 0.925396 0.280745
vt 0.873452 0.295591
vt 0.263062 0.162259
vt 0.241739 0.100105
vt 0.373523 0.169198
vt 0.285345 0.192255
vt 0.153622 0.209203
vt 0.123282 0.150916
vt 0.416318 0.179185
vt 0.418241 0.204136
vt 0.052391 0.271919
vt 0.013711 0.218800
vt 0.159998 0.246022
vt 0.082520 0.294023
vt 0.844722 0.187384
vt 0.871326 0.127299
vt 0.202690 0.240935
vt 0.209749 0.265103
vt 0.317707 0.432513
vt 0.317707 0.361874
vt 0.405391 0.361874
vt 0.405392 0.432513
vt 0.493076 0.361873
vt 0.493076 0.432512
vt 0.580760 0.361873
vt 0.580761 0.432512
vt 0.668445 0.361872
vt 0.668445 0.432511
vt 0.756129 0.361871
vt 0.756130 0.432510
vt 0.843814 0.361870
vt 0.749897 0.084059
vt 0.819935 0.215347
vt 0.734072 0.184772
vt 0.142338 0.361874
vt 0.230022 0.361874
vt 0.683446 0.192614
vt 0.676115 0.216789
vt 0.632978 0.203709
vt 0.465002 0.200533
vt 0.257670 0.251106
vt 0.890746 0.273521
vt 0.836850 0.266908
vt 0.384646 0.473438
vt 0.250611 0.226938
vt 0.854144 0.244839
vt 0.463079 0.175582
vt 0.640309 0.179534
vt 0.720247 0.190182
vt 0.497499 0.163892
vt 0.276963 0.204509
vt 0.735385 0.473436
vt 0.559867 0.473437
vt 0.163232 0.473438
vt 0.386263 0.169679
vt 0.984963 0.188138
vt 0.172257 0.242756
vt 0.843815 0.432509
vt 0.338453 0.473438
vt 0.830194 0.222916
vt 0.612173 0.162861
vt 0.689191 0.473436
vt 0.513971 0.473437
vn -0.747900 0.542000 0.383300
vn -0.747900 0.542000 -0.383300
vn -0.906100 0.195100 -0.375300
vn 0.326700 0.443700 -0.834500
vn -0.326700 0.443700 -0.834500
vn -0.353500 -0.071400 -0.932700
vn -0.383200 0.542300 -0.747700
vn -0.375300 0.195100 -0.906100
vn 0.835900 0.440400 -0.327500
vn -0.326700 0.443700 0.834500
vn 0.383200 0.542300 -0.747700
vn 0.375300 0.195100 -0.906100
vn 0.383200 0.542300 0.747700
vn 0.353500 -0.071400 -0.932700
vn 0.747900 0.542000 -0.383300
vn 0.906100 0.195100 -0.375300
vn 0.326700 0.443700 0.834500
vn -0.835900 0.440400 -0.327500
vn 0.747900 0.542000 0.383300
vn 0.906100 0.195100 0.375300
vn 0.531100 0.837700 0.126800
vn 0.353500 -0.071400 0.932700
vn 0.375300 0.195100 0.906100
vn -0.835900 0.440400 0.327500
vn -0.383200 0.542300 0.747700
vn -0.375300 0.195100 0.906100
vn -0.126900 0.836900 0.532400
vn -0.932600 -0.071800 0.353600
vn 0.835900 0.440400 0.327500
vn 0.923900 0.000000 -0.382700
vn 0.923900 0.000000 0.382700
vn 0.382700 0.000000 0.923900
vn -0.382700 0.000000 0.923900
vn -0.923900 0.000000 0.382700
vn -0.923900 0.000000 -0.382700
vn -0.382700 0.000000 -0.923900
vn -0.906100 0.195100 0.375300
vn 0.382700 0.000000 -0.923900
vn 0.126900 0.836900 0.532400
vn 0.932600 -0.071800 0.353600
vn 0.932600 -0.071800 -0.353600
vn -0.353500 -0.071400 0.932700
vn -0.932600 -0.071800 -0.353600
vn 0.531100 0.837700 -0.126800
vn -0.126900 0.836900 -0.532400
vn -0.531100 0.837700 -0.126800
vn -0.531100 0.837700 0.126800
vn 0.126900 0.836900 -0.532400
usemtl Material.017
s 1
f 2/1/1 6/2/2 7/3/3
f 26/4/4 30/5/5 47/6/6
f 6/2/2 10/7/7 11/8/8
f 5/9/9 9/10/10 10/7/7
f 10/7/7 15/11/11 16/12/12
f 27/13/13 26/14/4 45/15/14
f 15/11/11 19/16/15 20/17/16
f 14/18/17 18/19/18 19/16/15
f 19/16/15 23/20/19 24/21/20
f 15/11/11 40/22/21 39/23/22
f 23/20/19 27/24/13 28/25/23
f 23/20/19 22/26/24 26/27/4
f 27/13/13 31/28/25 32/29/26
f 23/20/19 44/30/27 43/31/28
f 1/32/29 29/33/30 25/34/31
f 5/35/9 25/34/31 21/36/32
f 9/37/10 21/36/32 17/38/33
f 14/39/17 17/38/33 13/40/34
f 18/41/18 13/40/34 12/42/35
f 22/43/24 12/42/35 8/44/36
f 31/28/25 2/1/1 3/45/37
f 30/46/5 1/47/29 2/1/1
f 26/4/4 8/48/36 4/49/38
f 30/5/5 4/49/38 29/33/30
f 34/50/39 33/51/40 35/52/41
f 37/53/42 39/23/22 40/22/21
f 41/54/43 43/31/28 44/30/27
f 46/55/44 45/15/14 47/56/6
f 1/32/29 5/35/9 35/57/41
f 19/16/15 42/58/45 44/30/27
f 31/28/25 48/59/46 47/56/6
f 10/7/7 38/60/47 40/22/21
f 6/2/2 36/61/48 35/52/41
f 2/1/1 1/62/29 33/51/40
f 27/13/13 46/55/44 48/59/46
f 10/7/7 9/63/10 37/53/42
f 19/16/15 18/64/18 41/54/43
f 18/41/18 22/43/24 43/65/28
f 2/1/1 34/50/39 36/61/48
f 9/37/10 14/39/17 39/66/22
f 3/45/37 2/1/1 7/3/3
f 45/67/14 26/4/4 47/6/6
f 7/3/3 6/2/2 11/8/8
f 6/2/2 5/9/9 10/7/7
f 11/8/8 10/7/7 16/12/12
f 46/55/44 27/13/13 45/15/14
f 16/12/12 15/11/11 20/17/16
f 15/11/11 14/18/17 19/16/15
f 20/17/16 19/16/15 24/21/20
f 14/68/17 15/11/11 39/23/22
f 24/21/20 23/20/19 28/25/23
f 27/24/13 23/20/19 26/27/4
f 28/69/23 27/13/13 32/29/26
f 22/70/24 23/20/19 43/31/28
f 5/35/9 1/32/29 25/34/31
f 9/37/10 5/35/9 21/36/32
f 14/39/17 9/37/10 17/38/33
f 18/41/18 14/39/17 13/40/34
f 22/43/24 18/41/18 12/42/35
f 26/71/4 22/43/24 8/44/36
f 32/29/26 31/28/25 3/45/37
f 31/28/25 30/46/5 2/1/1
f 30/5/5 26/4/4 4/49/38
f 1/32/29 30/5/5 29/33/30
f 36/61/48 34/50/39 35/52/41
f 38/60/47 37/53/42 40/22/21
f 42/58/45 41/54/43 44/30/27
f 48/59/46 46/55/44 47/56/6
f 33/72/40 1/32/29 35/57/41
f 23/20/19 19/16/15 44/30/27
f 30/73/5 31/28/25 47/56/6
f 15/11/11 10/7/7 40/22/21
f 5/74/9 6/2/2 35/52/41
f 34/50/39 2/1/1 33/51/40
f 31/28/25 27/13/13 48/59/46
f 38/60/47 10/7/7 37/53/42
f 42/58/45 19/16/15 41/54/43
f 41/75/43 18/41/18 43/65/28
f 6/2/2 2/1/1 36/61/48
f 37/76/42 9/37/10 39/66/22
