# Blender v2.71 (sub 0) OBJ File: 'enemy.blend'
# www.blender.org
mtllib Tricorn.mtl
o Sphere.002_Sphere.011
v 0.236355 1.590844 0.845820
v -0.279752 1.217579 1.059599
v -0.624604 0.658949 1.202441
v 0.236355 1.590844 0.341482
v -0.279752 1.217579 0.127704
v -0.624604 0.658949 -0.015138
v 0.592975 1.590844 -0.015138
v 0.379197 1.217579 -0.531245
v 0.236354 0.658949 -0.876097
v 0.845144 1.721917 0.593651
v 0.592975 1.590844 1.202441
v 0.379197 1.217579 1.718547
v 0.236355 0.658949 2.063399
v -0.624604 0.658949 1.202441
v 1.778101 -0.000000 2.992645
v 1.702461 0.576013 2.810032
v 1.487054 1.418428 2.289996
v -0.624604 0.658949 -0.015138
v 1.164676 1.981312 1.511706
v 3.183399 -0.000000 1.587347
v 3.000787 0.576013 1.511706
v 0.592975 1.590844 -0.015138
v 0.379197 1.217579 -0.531245
v 0.236354 0.658949 -0.876097
v 2.480750 1.418428 1.296300
v 1.702460 1.981312 0.973922
v 3.183399 -0.000000 -0.400045
v 0.845144 1.721917 0.593651
v 3.000786 0.576013 -0.324405
v 2.480750 1.418428 -0.108998
v 1.702460 1.981312 0.213380
v 1.778100 -0.000000 -1.805343
v 1.702460 0.576013 -1.622731
v 1.487054 1.418428 -1.102694
v 1.164676 1.981312 -0.324404
v 0.784405 2.178971 0.593651
v -0.209291 -0.000000 -1.805343
v -0.133651 0.576013 -1.622730
v 0.081756 1.418428 -1.102694
v 0.404134 1.981312 -0.324404
v -1.614589 -0.000000 -0.400044
v 0.592975 1.590844 1.202441
v 0.379197 1.217579 1.718547
v 0.236355 0.658949 2.063399
v -1.431977 0.576013 -0.324404
v -1.614589 -0.000000 1.587348
v -1.431977 0.576013 1.511707
v 0.404134 1.981312 1.511706
v 0.081756 1.418428 2.289996
v -0.133650 0.576013 2.810032
v -0.209291 -0.000000 2.992645
v 2.990982 1.326963 2.684919
v 2.990982 1.326963 -1.497618
v 3.311324 2.545477 0.593651
vt 0.425927 0.777348
vt 0.334414 0.731424
vt 0.430070 0.709825
vt 0.510039 0.218183
vt 0.392239 0.099107
vt 0.421954 0.038033
vt 0.236766 0.711315
vt 0.243407 0.779820
vt 0.297010 0.831651
vt 0.374631 0.830631
vt 0.515957 0.814401
vt 0.508778 0.384017
vt 0.573205 0.196125
vt 0.610224 0.828714
vt 0.511538 0.687657
vt 0.364153 0.174953
vt 0.252649 0.175039
vt 0.222289 0.097211
vt 0.753376 0.455873
vt 0.663739 0.557339
vt 0.578519 0.509745
vt 0.395524 0.511357
vt 0.569891 0.411554
vt 0.174408 0.254818
vt 0.103521 0.219987
vt 0.441861 0.252849
vt 0.063298 0.645057
vt 0.152514 0.684414
vt 0.150151 0.817573
vt 0.105878 0.390980
vt 0.226727 0.513288
vt 0.196975 0.575419
vt 0.402188 0.670541
vt 0.465028 0.646956
vt 0.202837 0.644915
vt 0.199446 0.032299
vt 0.041145 0.191042
vt 0.041144 0.414254
vt 0.334172 0.682582
vt 0.265910 0.671176
vt 0.420211 0.575322
vt 0.525097 0.614924
vt 0.599247 0.656269
vt 0.784444 0.304657
vt 0.657276 0.181695
vt 0.789807 0.160570
vt 0.932553 0.156698
vt 0.879174 0.281119
vt 0.668788 0.084766
vt 0.700759 0.885727
vt 0.649470 0.760429
vt 0.792131 0.766690
vt 0.914402 0.692924
vt 0.924290 0.790031
vt 0.795081 0.910847
vt 0.848035 0.432055
vt 0.809643 0.595907
vt 0.914025 0.463900
vt 0.954278 0.552823
vt 0.423766 0.917232
vt 0.695635 0.377173
vt 0.044731 0.832820
vt 0.143160 0.607915
vt 0.249161 0.923726
vt 0.349066 0.337940
vt 0.264405 0.340083
vt 0.246386 0.276608
vt 0.330806 0.396896
vt 0.284272 0.398221
vt 0.190660 0.392402
vt 0.140722 0.343885
vt 0.247271 0.429774
vt 0.309219 0.458598
vt 0.423802 0.384962
vt 0.367137 0.276608
vt 0.370141 0.426648
vt 0.468497 0.337448
vn 0.161700 0.906300 0.390400
vn -0.541000 0.841000 0.000000
vn -0.714400 0.697300 0.056700
vn -0.399000 0.578500 0.711400
vn -0.637200 0.724100 0.263700
vn -0.873900 0.324600 0.362000
vn -0.714400 0.697300 -0.056700
vn 0.161700 0.906300 -0.390400
vn 0.129900 0.940700 -0.313300
vn 0.129900 0.940700 0.313300
vn 0.056500 0.765200 0.641300
vn 0.221200 0.297300 0.928800
vn -0.362000 0.324600 0.873900
vn -0.767200 0.555200 0.321100
vn -0.087900 0.995400 0.037500
vn -0.087900 0.995400 -0.037500
vn -0.637200 0.724100 -0.263700
vn 0.707000 0.656100 -0.263900
vn 0.707000 0.656100 0.263900
vn 0.936500 0.281100 0.209600
vn 0.362000 0.324600 0.873900
vn -0.736900 0.606900 0.297700
vn -0.399000 0.578500 -0.711400
vn -0.736900 0.606900 -0.297700
vn -0.767200 0.555200 -0.321100
vn 0.056500 0.765200 -0.641300
vn 0.221200 0.297300 -0.928800
vn 0.936500 0.281100 -0.209600
vn 0.873900 0.324600 -0.362000
vn -0.903200 -0.107800 -0.415400
vn -0.895000 -0.073900 -0.439900
vn -0.895000 -0.073900 0.439900
vn -0.873900 0.324600 -0.362000
vn -0.362000 0.324600 -0.873900
vn 0.362000 0.324600 -0.873900
vn -0.991300 -0.131700 -0.000000
vn -0.903200 -0.107800 0.415400
vn 0.873900 0.324600 0.362000
vn 0.692200 0.345800 0.633500
vn 0.692200 0.345800 -0.633500
vn 0.784700 0.619800 0.000000
vn -0.674100 0.683800 0.279200
vn -0.674100 0.683800 -0.279200
vn -0.768200 0.555600 -0.318200
vn -0.390400 0.906300 0.161700
vn -0.390400 0.906300 -0.161700
vn -0.534500 0.654600 -0.534500
vn -0.601700 0.525300 -0.601700
vn -0.318600 0.892800 -0.318600
vn -0.170700 0.985300 0.000000
vn -0.534500 0.654600 0.534500
vn -0.768200 0.555600 0.318200
vn -0.318600 0.892800 0.318600
vn -0.601700 0.525300 0.601700
usemtl Material.013
s 1
f 19/1/1 36/2/2 48/3/3
f 50/4/4 47/5/5 46/6/6
f 40/7/7 36/2/2 35/8/8
f 35/8/8 36/2/2 31/9/9
f 31/9/9 36/2/2 26/10/10
f 26/10/10 19/1/1 17/11/11
f 16/12/12 50/4/4 51/13/13
f 16/14/12 17/11/11 49/15/14
f 14/16/15 18/17/16 45/18/17
f 30/19/18 25/20/19 21/21/20
f 21/22/20 16/12/12 15/23/21
f 24/24/22 38/25/23 45/18/17
f 44/26/24 14/16/15 47/5/5
f 38/27/23 39/28/25 34/29/26
f 40/7/7 35/8/8 34/29/26
f 33/30/27 29/31/28 27/32/29
f 42/33/30 43/34/31 49/15/14
f 23/35/32 39/28/25 38/27/23
f 47/5/5 45/18/17 41/36/33
f 45/18/17 38/25/23 37/37/34
f 38/25/23 33/30/27 32/38/35
f 28/39/36 36/2/2 40/7/7
f 26/10/10 36/2/2 19/1/1
f 19/1/1 48/3/3 49/15/14
f 22/40/37 40/7/7 39/28/25
f 29/31/28 21/22/20 20/41/38
f 43/34/31 44/42/24 50/43/4
f 34/29/26 35/8/8 31/9/9
f 28/39/36 42/33/30 48/3/3
f 16/44/12 21/45/20 52/46/39
f 25/47/19 17/48/11 52/46/39
f 21/45/20 25/49/19 52/46/39
f 17/48/11 16/44/12 52/46/39
f 34/50/26 30/51/18 53/52/40
f 30/53/18 29/54/28 53/52/40
f 33/55/27 34/50/26 53/52/40
f 29/54/28 33/55/27 53/52/40
f 30/19/18 31/56/9 54/57/41
f 25/20/19 30/19/18 54/57/41
f 26/58/10 25/59/19 54/57/41
f 31/56/9 26/58/10 54/57/41
f 51/13/13 50/4/4 46/6/6
f 25/60/19 26/10/10 17/11/11
f 15/23/21 16/12/12 51/13/13
f 50/43/4 16/14/12 49/15/14
f 47/5/5 14/16/15 45/18/17
f 29/61/28 30/19/18 21/21/20
f 20/41/38 21/22/20 15/23/21
f 18/17/16 24/24/22 45/18/17
f 50/4/4 44/26/24 47/5/5
f 33/62/27 38/27/23 34/29/26
f 39/28/25 40/7/7 34/29/26
f 32/38/35 33/30/27 27/32/29
f 48/3/3 42/33/30 49/15/14
f 24/63/22 23/35/32 38/27/23
f 46/6/6 47/5/5 41/36/33
f 41/36/33 45/18/17 37/37/34
f 37/37/34 38/25/23 32/38/35
f 22/40/37 28/39/36 40/7/7
f 17/11/11 19/1/1 49/15/14
f 23/35/32 22/40/37 39/28/25
f 27/32/29 29/31/28 20/41/38
f 49/15/14 43/34/31 50/43/4
f 30/64/18 34/29/26 31/9/9
f 36/2/2 28/39/36 48/3/3
usemtl Material.014
f 2/65/42 5/66/43 6/67/44
f 2/65/42 1/68/45 4/69/46
f 5/66/43 8/70/47 9/71/48
f 5/66/43 4/69/46 7/72/49
f 1/68/45 10/73/50 4/69/46
f 4/69/46 10/73/50 7/72/49
f 12/74/51 2/65/42 3/75/52
f 12/74/51 11/76/53 1/68/45
f 11/76/53 10/73/50 1/68/45
f 3/75/52 2/65/42 6/67/44
f 5/66/43 2/65/42 4/69/46
f 6/67/44 5/66/43 9/71/48
f 8/70/47 5/66/43 7/72/49
f 13/77/54 12/74/51 3/75/52
f 2/65/42 12/74/51 1/68/45
