# Blender v2.71 (sub 0) OBJ File: 'enemy.blend'
# www.blender.org
mtllib Worm.mtl
o Sphere_Sphere.006
v -7.205134 0.878701 -0.232049
v -6.939378 0.672528 -0.428770
v -6.761805 0.363970 -0.560215
v -6.699450 -0.000000 -0.606373
v -6.980729 0.878701 0.000000
v -6.604892 0.672528 0.000000
v -7.205134 0.878701 0.232049
v -6.939378 0.672528 0.428770
v -6.761805 0.363970 0.560215
v -6.699450 -0.000000 0.606373
v -7.518616 0.878701 -0.328166
v -7.518616 0.672528 -0.606373
v -7.518616 0.363970 -0.792264
v -7.518616 -0.000000 -0.857540
v -7.518616 0.951099 0.000000
v -7.851805 0.878701 -0.232049
v -8.117561 0.672528 -0.428770
v -8.295135 0.363970 -0.560215
v -8.357491 -0.000000 -0.606373
v -8.206621 0.878701 0.000000
v -8.582458 0.672528 0.000000
v -8.833584 0.363970 0.000000
v -8.921767 -0.000000 0.000000
v -7.851805 0.878701 0.232049
v -8.117561 0.672528 0.428770
v -8.295135 0.363970 0.560215
v -8.357490 -0.000000 0.606373
v -7.518616 0.878701 0.328166
v -7.518616 0.672528 0.606373
v -7.518616 0.363970 0.792264
v -7.518616 -0.000000 0.857540
v -7.208455 0.643322 -0.240260
v -7.208455 0.492378 -0.443943
v -7.208455 0.266473 -0.580040
v -7.208455 -0.000000 -0.627830
v -7.208455 0.696327 0.000000
v -7.208455 0.643322 0.240260
v -7.208455 0.492378 0.443943
v -7.208455 0.266473 0.580039
v -7.208455 -0.000000 0.627830
v -7.208455 1.185461 -0.442732
v -7.208455 0.907313 -0.818061
v -7.208455 0.491034 -1.068849
v -7.208455 -0.000000 -1.156914
v -7.208455 1.283134 0.000000
v -6.785535 1.185461 -0.313059
v -6.427001 0.907313 -0.578457
v -6.187436 0.491034 -0.755790
v -6.103312 -0.000000 -0.818062
v -6.482788 1.185461 -0.000000
v -5.975744 0.907313 -0.000000
v -5.636948 0.491034 -0.000000
v -5.517979 -0.000000 -0.000000
v -6.785535 1.185461 0.313059
v -6.427001 0.907313 0.578457
v -6.187436 0.491034 0.755790
v -6.103312 -0.000000 0.818061
v -7.208455 1.185461 0.442732
v -7.208455 0.907313 0.818061
v -7.208455 0.491034 1.068849
v -7.208455 -0.000000 1.156914
v -6.401776 0.753184 -0.281290
v -6.401776 0.576462 -0.519756
v -6.401776 0.311979 -0.679094
v -6.401776 -0.000000 -0.735046
v -6.401776 0.815240 0.000000
v -6.401776 0.753184 0.281290
v -6.401776 0.576462 0.519756
v -6.401776 0.311979 0.679094
v -6.401776 -0.000000 0.735046
v -6.401776 1.387905 -0.518338
v -6.401776 1.062256 -0.957763
v -6.401776 0.574889 -1.251378
v -6.401776 -0.000000 -1.354482
v -6.401776 1.502257 0.000000
v -5.906633 1.387905 -0.366520
v -5.486872 1.062256 -0.677241
v -5.206396 0.574889 -0.884858
v -5.107906 -0.000000 -0.957763
v -5.552185 1.387905 -0.000000
v -4.958552 1.062256 -0.000000
v -4.561899 0.574889 -0.000000
v -4.422614 -0.000000 -0.000000
v -5.906633 1.387905 0.366520
v -5.486872 1.062256 0.677241
v -5.206396 0.574889 0.884858
v -5.107906 -0.000000 0.957763
v -6.401776 1.387905 0.518338
v -6.401776 1.062256 0.957763
v -6.401776 0.574889 1.251378
v -6.401776 -0.000000 1.354482
vt 0.499524 0.154652
vt 0.506801 0.044471
vt 0.575319 0.046807
vt 0.450817 0.138706
vt 0.442343 0.060083
vt 0.405817 0.130494
vt 0.395173 0.096032
vt 0.360097 0.068607
vt 0.359914 0.008990
vt 0.325141 0.096723
vt 0.214706 0.050438
vt 0.225069 0.152433
vt 0.168749 0.173584
vt 0.277702 0.060572
vt 0.272995 0.138604
vt 0.317121 0.131476
vt 0.360888 0.128128
vt 0.480143 0.278957
vt 0.446247 0.232633
vt 0.417592 0.194724
vt 0.390325 0.161625
vt 0.359439 0.324856
vt 0.360119 0.272350
vt 0.360602 0.229019
vt 0.360929 0.190608
vt 0.240548 0.275755
vt 0.275386 0.230796
vt 0.304538 0.193991
vt 0.331926 0.161720
vt 0.574019 0.539114
vt 0.475267 0.458707
vt 0.508965 0.393388
vt 0.512070 0.584930
vt 0.443115 0.515428
vt 0.438843 0.615477
vt 0.406623 0.569599
vt 0.360633 0.419496
vt 0.361721 0.350910
vt 0.359929 0.481485
vt 0.359547 0.542050
vt 0.243981 0.455966
vt 0.275607 0.514713
vt 0.312104 0.569575
vt 0.141507 0.543736
vt 0.085857 0.484000
vt 0.207677 0.587913
vt 0.280823 0.614491
vt 0.359162 0.626640
vt 0.791328 0.354964
vt 0.822632 0.430539
vt 0.754181 0.444155
vt 0.754181 0.362353
vt 0.685730 0.430539
vt 0.851250 0.265284
vt 0.933052 0.265283
vt 0.919437 0.333735
vt 0.843861 0.302430
vt 0.880662 0.391765
vt 0.822819 0.333922
vt 0.664501 0.302431
vt 0.588926 0.333735
vt 0.575310 0.265283
vt 0.685543 0.333922
vt 0.627700 0.391765
vt 0.717034 0.354964
vt 0.611387 0.875773
vt 0.495304 0.782212
vt 0.534376 0.705543
vt 0.539127 0.929774
vt 0.457992 0.848806
vt 0.453575 0.965964
vt 0.415585 0.912440
vt 0.360867 0.736974
vt 0.361742 0.656669
vt 0.360404 0.809552
vt 0.360310 0.880461
vt 0.224509 0.780351
vt 0.261878 0.848944
vt 0.304925 0.912963
vt 0.105048 0.883705
vt 0.039548 0.814093
vt 0.182773 0.935040
vt 0.268564 0.965731
vt 0.360352 0.979499
vt 0.815724 0.692151
vt 0.852374 0.780633
vt 0.772233 0.796574
vt 0.728743 0.692151
vt 0.772233 0.700802
vt 0.885879 0.587156
vt 0.981651 0.587156
vt 0.965710 0.667296
vt 0.877228 0.630647
vt 0.920314 0.735237
vt 0.852593 0.667516
vt 0.658588 0.587156
vt 0.667238 0.630647
vt 0.578757 0.667296
vt 0.691874 0.667516
vt 0.624153 0.735237
vt 0.692093 0.780633
vt 0.556376 0.178027
vt 0.153209 0.053779
vt 0.624411 0.483868
vt 0.211664 0.388521
vt 0.657112 0.265284
vt 0.670062 0.810801
vt 0.186280 0.701578
vt 0.562816 0.587156
vn 0.003200 0.341400 -0.939900
vn 0.278500 0.311700 -0.908400
vn 0.288900 0.169000 -0.942300
vn 0.003100 0.654900 -0.755700
vn 0.307200 0.718500 -0.624000
vn 0.003000 0.895000 -0.445900
vn 0.213300 0.907600 -0.361600
vn 0.387200 0.922000 0.000000
vn 0.456400 0.889800 -0.000000
vn 0.213300 0.907600 0.361600
vn 0.278500 0.311700 0.908400
vn 0.003200 0.341400 0.939900
vn 0.003100 0.176500 0.984300
vn 0.307200 0.718500 0.624000
vn 0.003100 0.654900 0.755700
vn 0.003000 0.895000 0.445900
vn 0.007400 1.000000 0.000000
vn -0.527700 0.195400 -0.826600
vn -0.491000 0.370000 -0.788600
vn -0.362400 0.682900 -0.634300
vn -0.180400 0.905000 -0.385200
vn -0.968700 0.248300 0.000000
vn -0.906600 0.422000 0.000000
vn -0.677000 0.736000 0.000000
vn -0.399500 0.916700 0.000000
vn -0.527700 0.195400 0.826600
vn -0.491000 0.370000 0.788600
vn -0.362400 0.682900 0.634300
vn -0.180400 0.905000 0.385200
vn -0.560500 0.282700 -0.778300
vn 0.543300 0.375300 -0.751000
vn 0.581900 0.199700 -0.788400
vn -0.578800 0.534000 -0.616200
vn 0.406300 0.690300 -0.598600
vn -0.611500 0.708100 -0.353000
vn 0.907400 0.420300 0.000000
vn 0.970400 0.241300 -0.000000
vn 0.675000 0.737800 0.000000
vn 0.543300 0.375300 0.751000
vn 0.406300 0.690300 0.598600
vn -0.560500 0.282700 0.778300
vn -0.548700 0.147600 0.822900
vn -0.578800 0.534000 0.616200
vn -0.611500 0.708100 0.353000
vn -0.625100 0.780500 0.000000
vn -1.000000 0.000000 0.000000
vn -0.548700 0.147600 -0.822900
vn 0.003100 0.176500 -0.984300
vn 0.288900 0.169000 0.942300
vn 0.581900 0.199700 0.788400
usemtl Material.004
s 1
f 13/1/1 3/2/2 4/3/3
f 12/4/4 2/5/5 3/2/2
f 11/6/6 1/7/7 2/5/5
f 1/7/7 5/8/8 6/9/9
f 6/9/9 5/8/8 7/10/10
f 9/11/11 30/12/12 31/13/13
f 8/14/14 29/15/15 30/12/12
f 7/10/10 28/16/16 29/15/15
f 11/6/6 15/17/17 1/7/7
f 1/7/7 15/17/17 5/8/8
f 5/8/8 15/17/17 7/10/10
f 7/10/10 15/17/17 28/16/16
f 19/18/18 18/19/19 13/1/1
f 18/19/19 17/20/20 12/4/4
f 17/20/20 16/21/21 11/6/6
f 23/22/22 22/23/23 18/19/19
f 22/23/23 21/24/24 17/20/20
f 21/24/24 20/25/25 16/21/21
f 23/22/22 27/26/26 26/27/27
f 22/23/23 26/27/27 25/28/28
f 21/24/24 25/28/28 24/29/29
f 27/26/26 31/13/13 30/12/12
f 26/27/27 30/12/12 29/15/15
f 25/28/28 29/15/15 28/16/16
f 11/6/6 16/21/21 15/17/17
f 16/21/21 20/25/25 15/17/17
f 20/25/25 24/29/29 15/17/17
f 24/29/29 28/16/16 15/17/17
f 43/30/30 48/31/31 49/32/32
f 42/33/33 47/34/34 48/31/31
f 42/33/33 41/35/35 46/36/7
f 48/31/31 52/37/36 53/38/37
f 47/34/34 51/39/38 52/37/36
f 46/36/7 50/40/8 51/39/38
f 53/38/37 52/37/36 56/41/39
f 52/37/36 51/39/38 55/42/40
f 51/39/38 50/40/8 54/43/10
f 56/41/39 60/44/41 61/45/42
f 55/42/40 59/46/43 60/44/41
f 54/43/10 58/47/44 59/46/43
f 41/35/35 45/48/45 46/36/7
f 46/36/7 45/48/45 50/40/8
f 50/40/8 45/48/45 54/43/10
f 54/43/10 45/48/45 58/47/44
f 37/49/46 58/50/44 45/51/45
f 36/52/46 45/51/45 41/53/35
f 40/54/46 61/55/42 60/56/41
f 39/57/46 60/56/41 59/58/43
f 38/59/46 59/58/43 58/50/44
f 34/60/46 43/61/30 44/62/47
f 33/63/46 42/64/33 43/61/30
f 33/63/46 32/65/46 41/53/35
f 73/66/30 78/67/31 79/68/32
f 72/69/33 77/70/34 78/67/31
f 72/69/33 71/71/35 76/72/7
f 78/67/31 82/73/36 83/74/37
f 77/70/34 81/75/38 82/73/36
f 76/72/7 80/76/8 81/75/38
f 83/74/37 82/73/36 86/77/39
f 82/73/36 81/75/38 85/78/40
f 81/75/38 80/76/8 84/79/10
f 86/77/39 90/80/41 91/81/42
f 85/78/40 89/82/43 90/80/41
f 85/78/40 84/79/10 88/83/44
f 71/71/35 75/84/45 76/72/7
f 76/72/7 75/84/45 80/76/8
f 80/76/8 75/84/45 84/79/10
f 84/79/10 75/84/45 88/83/44
f 67/85/46 88/86/44 75/87/45
f 62/88/46 66/89/46 75/87/45
f 70/90/46 91/91/42 90/92/41
f 69/93/46 90/92/41 89/94/43
f 68/95/46 89/94/43 88/86/44
f 65/96/46 64/97/46 73/98/30
f 64/97/46 63/99/46 72/100/33
f 63/99/46 62/88/46 71/101/35
f 14/102/48 13/1/1 4/3/3
f 13/1/1 12/4/4 3/2/2
f 12/4/4 11/6/6 2/5/5
f 2/5/5 1/7/7 6/9/9
f 8/14/14 6/9/9 7/10/10
f 10/103/49 9/11/11 31/13/13
f 9/11/11 8/14/14 30/12/12
f 8/14/14 7/10/10 29/15/15
f 14/102/48 19/18/18 13/1/1
f 13/1/1 18/19/19 12/4/4
f 12/4/4 17/20/20 11/6/6
f 19/18/18 23/22/22 18/19/19
f 18/19/19 22/23/23 17/20/20
f 17/20/20 21/24/24 16/21/21
f 22/23/23 23/22/22 26/27/27
f 21/24/24 22/23/23 25/28/28
f 20/25/25 21/24/24 24/29/29
f 26/27/27 27/26/26 30/12/12
f 25/28/28 26/27/27 29/15/15
f 24/29/29 25/28/28 28/16/16
f 44/104/47 43/30/30 49/32/32
f 43/30/30 42/33/33 48/31/31
f 47/34/34 42/33/33 46/36/7
f 49/32/32 48/31/31 53/38/37
f 48/31/31 47/34/34 52/37/36
f 47/34/34 46/36/7 51/39/38
f 57/105/50 53/38/37 56/41/39
f 56/41/39 52/37/36 55/42/40
f 55/42/40 51/39/38 54/43/10
f 57/105/50 56/41/39 61/45/42
f 56/41/39 55/42/40 60/44/41
f 55/42/40 54/43/10 59/46/43
f 36/52/46 37/49/46 45/51/45
f 32/65/46 36/52/46 41/53/35
f 39/57/46 40/54/46 60/56/41
f 38/59/46 39/57/46 59/58/43
f 37/49/46 38/59/46 58/50/44
f 35/106/46 34/60/46 44/62/47
f 34/60/46 33/63/46 43/61/30
f 42/64/33 33/63/46 41/53/35
f 74/107/47 73/66/30 79/68/32
f 73/66/30 72/69/33 78/67/31
f 77/70/34 72/69/33 76/72/7
f 79/68/32 78/67/31 83/74/37
f 78/67/31 77/70/34 82/73/36
f 77/70/34 76/72/7 81/75/38
f 87/108/50 83/74/37 86/77/39
f 86/77/39 82/73/36 85/78/40
f 85/78/40 81/75/38 84/79/10
f 87/108/50 86/77/39 91/81/42
f 86/77/39 85/78/40 90/80/41
f 89/82/43 85/78/40 88/83/44
f 66/89/46 67/85/46 75/87/45
f 71/101/35 62/88/46 75/87/45
f 69/93/46 70/90/46 90/92/41
f 68/95/46 69/93/46 89/94/43
f 67/85/46 68/95/46 88/86/44
f 74/109/47 65/96/46 73/98/30
f 73/98/30 64/97/46 72/100/33
f 72/100/33 63/99/46 71/101/35
